<mxfile host="app.diagrams.net" agent="Mozilla/5.0 (Windows NT 10.0; Win64; x64) AppleWebKit/537.36 (KHTML, like Gecko) Chrome/126.0.0.0 Safari/537.36 Edg/126.0.0.0" version="24.7.4">
  <diagram name="Page-1" id="R0K0QukjI-HSdModA5sZ">
    <mxGraphModel dx="996" dy="697" grid="1" gridSize="10" guides="1" tooltips="1" connect="1" arrows="1" fold="1" page="1" pageScale="1" pageWidth="827" pageHeight="1169" math="0" shadow="0">
      <root>
        <mxCell id="0" />
        <mxCell id="1" parent="0" />
        <mxCell id="mT69RWWx5BSgdqpOwlCB-1" value="" style="shape=image;verticalLabelPosition=bottom;labelBackgroundColor=default;verticalAlign=top;aspect=fixed;imageAspect=0;image=data:image/png,iVBORw0KGgoAAAANSUhEUgAAAoUAAAG1CAYAAACPu47kAAAAAXNSR0IArs4c6QAAAARnQU1BAACxjwv8YQUAAAAJcEhZcwAADsMAAA7DAcdvqGQAAMeOSURBVHhe7N0FWFRpFwfwv3R3SSuC3d2K3R1ru+a6q27vtx1ud7m7btjd3d2JGGCClNLd6XfPO3cIRZgBVAbOb5/7cGvuDCszc+4b59R4KAFjjDHGGKvWtOSfjDHGGGOsGuOgkDHGGGOMcVDIGGOMMcY4KGSMMcYYYxIOChljjDHGGAeFjDHGGGOMg0LGGGOMMSbhoJAxxhhjjHFQyBhjjDHGOChkjDHGGGMSDgoZY4wxxhgHhYwxxhhjjINCxhhjjDEm4aCQMcYYY4xxUMgYY4wxxjgoZIwxxhhjEg4KGWOMMcYYB4WMMcYYY4yDQsYYY4wxJuGgkDHGGGOMcVDIGGOMMcY4KGSMMcYYYxIOCtUUHx+P+Lg4eatkERERuH7tKpISE+U9Cjk5OQgJDpa3VJOTnY2bN27g7p07eJiXJ+9ViImJeew5GGOMMcbUwUGhGi6eP4/1a9fg6tUr8p4n8/fzw/GjR5CX9xBr16xGakqKfAQ4Ju3fvm2rvFW6PCkIXLN6FZKTk3DvXiAO7N8vH4G47srly3D79i15D2OMMcaY+jgoVIO1jQ06dOwob5Xs3NkzGDJ0GJo0bYopL06DsYmJ2B8aEoKszCzo6+uLbVUEBwXB1s4Ordu0Rc9evdHN21s+AuzbuweNGjWWtxhjjDHGyoaDQjXUql1bXitdamoqDh8+JFoW9+7ejbzcXGRnZeHwoYNFgjpVREVGIjUlFVs3bxatghRYkqtXrsDa2gZW1tZimzHGGGOsrDgofEpojF/Xbt0xeuwL0NHVwc2bN6WA8JDYZ2hoKJ+lmlwpoDQ0MsTQ4cMxYuQo7N+7B8lJSfD3u47OXbvKZzHGGGOMlR0HhU+JpZUVDOQuYgsLCxHEBQXdw8UL57Fx/ToxYeVgobGBJbGwtIShgSKQNDI2Ro4UJN644Y/s7Gxs3rgBPhcv4LKPT34LImOMMcaYumo8lMjrrAQ02cPv+jWEhoaKyR316teXlgbQ1dWVzyjq1IkTSE5JhpdXXRw6sB8jx4yFpRTcKf2z6C/MmDVb3ipZVmYmli9bii5du4mu5Li4WAweOkw+CvhcuiS9vly0at1G3sMYY4wxph4OClVEYwKvXbuGsMgkGBnowsrcEA0aSEGhnp58xuNu37ol0td4eHqKlsPQ8CTQ/2wzY33ERYXC08tLcaIKUpKTccPfHwaGBmjQsBG0tbXlI0BcbCzon5EmwjDGGGOMlQUHhWrqN3MlPN2t8et7/eQ9qtl84Ab+2XAJFuZGSEhMw56/J8hHVBccnoj5X+yGnp6OSHXz34LBMDc1kI8yxhhjjJUdjyksg+ycXHlNdWkZ2ahd2wEtW9VFjRryTjWFRyXDxMQQzZt7iu3YxHTxkzHGGGOsvDgo1DD6+jrQN9CDvp6OvIcxxhhjrPw4KGSMMcYYYxwUMsYYY4wxDgoZY4wxxpiEg0LGGGOMMcZBIWOMMcYY46CQMcYYY4xJOChkjDHGGGMcFDLGGGOMMQ4KGWOMMcaYhINCxhhjjDHGQSFjjDHGGOOgkDHGGGOMSTgoZIwxxhhjHBQyxhhjlUlSYiKuXvGVtxT8/fxw+NBBXL92Td4DBAcF4cjhQ7h4/jyys7PlvaULf/AAERER8laBtLQ0pEsLq744KGSMMcYqicCAABzYvw8njx+X9wDnz53F3Tt30KBBQ9y+dQs+ly4hLDQUJ08cR/PmLaClrYXdO3fIZ5ds25YtuHbtKi5I1zx4YL+8F8iRgsrlS5eIa6uCXt/K5cuw5L9/ERIcLO8F8vLyxP5bN2/Ke0pHgS0999LF/+HC+XPyXvY8cFDIGGOMVRKWlpYYPmKkvKVQu7YHevftC4eaNVG3Xj3Ex8UhMTEBNR0dYSGd7+FRR9pOlM9+sqioKNGi2LtPXwwcPAQtWrSUj0iB2ZHDcHVzk7dKFh4ejoiIcEyYNBkjR41GZmamfAQ4ffKkCAyzsrLkPSWj152UmIRJU6Zi4uQpOCU9nj0/HBQyxhhjlYSllRVQo4a8pWBjawsDAwNkZmTg4oXzaNq8OerVq48IKTjbsmkTNm3cgG7dveWzn4y6jXV1dUVr4bo1q5GSkiL2U0sfdRu7u9cS26UJuhcIJydn0Vro53cdbnIwGRkRIYJFTy8vsa0Kc3NzDBk2TKzT72dkZCTW2fPBQSFjjDFWycXHx2Pd2jXo0bMXbGxsEBAQAGNjE/QfMEDso67k0uTkZCMjIx2Dhw7FwEGDsXP7NtGid+L4MfTp208+q3TpaekICrqHevXrQ0dbBzt3bEdubq7oju7br798lnooQN28aSMGDBwk72HPAweFjDHGWCWWlJSEbVs2S8HcMDi7uIh9oaEhqO3hAX0DA7i5uyM6KkrsL4mpqZloiaxRowZMTE3xUNp35fJlpKWmYocUIJ49cxrXr10V4xpLom+gL1oDqQWzVZs2eHD/vhj3qK9vgBs3/MV4x3uBAUhMSJAfUbKYmBhs2rAevaXA1MnZWd7LngcOChljjLFK4trVKzh6+LCYCXzk0CHRtUs/qVv18qVLYp1mINev30BMyrji64v9e/dKQVpd+QpP5i4FjyFBQSKIu+HvDzMzM7Ru2xYzZr+EkaPHoF37DmjUuIkINktSq1ZtBNy9i4cPHyIyMhKm0nXq1q2HVq1bw9bWTrRg0j49PT35EU+WnZWFHdu2YtiIkbCzs5P3suelhvSPSjcLTEX9Zq6Eu7MF/vxooLxHNSt3XMUZvyjpzVQThw9fxu5FE+Qjqjt7JQz/bPZFw0a1cenCTSyY1x21nS3lo4wxxjRdXFwcMtLT5S3AzNxcTOSg8XZKhoaGosUvNTVVjCukgJEmnagiLjYWvpcvi7GFLaUgrvAYvpjoaGRIz6NsjSwJBaQ0I1pLS0vRpW1rKx8B/K5fF9etVbu2vOfJKEA9dPCAuI7SsOEjYGRsLG+xZ4mDQjU976Dw55XnYG1jgZjIeHz1eg8OChljrIo74xuKlLQsaGtrwUBPB6npWVIQVQNdWrlBV0dbPkt19LUfn6QIMg30dWBkoCvWy4peW1Z2rvRatGBqrC/vZZqIu481TLb0xouPS0Yex/KMMVbl3Y9Kxmd/HMPlG+H47r9TWPDnMWw4dAffLz6NU5dD5bPUs/XQTYx/axOmfbANI+evk/eWTWJyBka9uh7TP9yO0a9tQGhEknxEPTMX7BOviz1fHBRqGAtzI7Rq5QU9XfXvDhljjGmWvLyHcLQ3xdvTOqFdM2cYGOigXj1XuDhbi2NlQa2EtT1qokPHRqL1sTwysnJhYqKPTp0bw9bGFCmpBTkL1REaGo0dR2/JW+x54aBQg9wNjkNikmKsSZJ0d3ZH2maMMcaqApoVzZ4vDgo1SGxiOjIzFfUtc3PzkCGvM8YYY4yVFweFGsTa3BD6+ooBwfr6OrCz4tlZjDHGGKsYHBRqkDpuVjA3MxTrRoZ6sLcxEeuMMcYYY+XFQaGGys7JRWqaagXHGWOMMcZKw0GhBrlw7QGio5PFekpKJgLD4sU6Y4wxxlh5cVCoQSg3If3HGGOMMVbROCjUIB4uljAzVYwppLGFDTwKygoxxhhjjJUHB4UaxMbSCAZyOSIqcVTepKOMMcYYY0ocVWiQhKQMZGbmiPW09CyERynGFzLGGGOMlRcHhRrkVlAsEpPSxDoFhzEJinXGGGOMsfLioFCDUL1jbS3FP5mOjpbIVcgYY4wxVhE4KNQgzes7wNpakbDa1MRATDxhjDHGGKsIHBQyxhhjjDEOCjXJjcAYxMvjCBOT0nFT2maMMcYYqwgcFGqQpJRMZGcrZh/n5T0Upe4YY4wxxioCB4UaxN7aGIYGisklxsb6cHO0EOuMMcYYY+XFQaEGcXeygKmpgVinmchmJvpinTHGGGOsvDgo1CCp6VnIzlZ0GWdm5SAhOUOsM8YYY4yVFweFGuT6nWjEJ6SK9bS0LISGJ4p1xhhjjLHy4qCQMcYYY4xxUKhJmtWzh7WVInm1pYURGnvZi3XGGGOMsfLioFCD6OvpQFub/8kYY4wxVvE4wtAgYRFJSE3NFOtJKRm4GxIn1hljjDHGyouDQg1yPyoZqWmKoDA3Jw/pGdlinTHGGGOsvDgo1CDGBrrQ0dEW6/r6OrC1NBbrjDHGGGPlxUGhBmnkZQcrORA0MtSDg61i0gljjDHGWHlxUKih8vLykMO1jxljjDFWQTgo1CDXbkchLk6RvDoxKQM3AmPEOmOMMcZYeXFQqEHSMrKRk8utg4wxxhireBoTFA4dNgQ//vSjvFU9ebhYwszUUKybmOhL21ZinTHGGGOsvDQmKPzh+x8wftx4eevp+fjjj3DgwH55q3KxsTSCgYGuWNfV0YaRoWKdMcYYY6y8NCYoTElJRUZmhlg/f/48YmNjcfv2bSxfvgx79uxBTk6OOJaamopjx46KiRj79+/DylUrcefOHXGM3Lp1SzxO6eHDhzh69Ih0/RRcuXIFO3ftxPkLF+Dv7y+fUXkkJmcgK0vxe6alZyE8OlmsM8YYY4yVl8YEhf97939Yu3atWJ/z8kt4++238Nbbb+La9WuYO+8Vad8ccSwsLAx9+/XFlCmTsXHTJhw9cgSt27TC7t27xXHqgv75l5/FOsnOzka//v0QEBCAw0cO4969ezhx4gROnTopn1F53LwXi4TENLGemZmDmHjFOmOMMcZYeWnkRBMtLS0pOErAtq3b8d2334tly5bN+cdIx44d8feiv/Hvv/9h5syZ+Obbr8X+krz26muwsLDAS7NfwowZM+W9lZO2jhaM5K5kxhhjjLHy0sigkPTq2UteA2o61hTdxoX17ddPXpMCxA6dcP36dXlLc7VqWBM21qZi3czEAB6uPNGEMcYYYxVDY4NCXd2irWQ0NrAwM1MzeQ0wNjZCenq6vKW5tLW1oKVVQ95ijDHGGKs4GhsUliYuLlZek9bj42FlpWhVq1GjRpEAkiaYaIp7YQlITlZMtklMSsfNe5y8mjHGGGMVo8oGhWvkSSlk27atYowhsbWxgZ/f9fzAcPGSxeKnkraWNtLSK+cEjqi4VKRnZIn1vLyHyM7mRNaMMcYYqxhVNijMysxEp84d0aJlc1y65IPPF3wh9k+ePAWhoaFo0LABWrVuCR0dHZiamuantBkwcCDmzZuLceNfENuViZ2VMQwN9MQ65St0sDER64wxxhhTzeXLl7F+w3p5q3wuXLiALVu2yFuaT2OCwp07duKtN98S66dPncGLL04T66Rtm7ZITiraDfz6629Ij9mFTRs34fq16/D09BT769Spgzu370rHduDggUN4df6reHA/HC1atBDHf/zhR/hevoJ///lPbFcmtZwtpADWQKwbSkGhrRQkMsYYY9VVZGQkIiIi5C3V7Nq9SwrmzstbBShFHaW1y8zMlPeUbseO7fDxuSRvaT6NCQq1tbXz081Q6x6NDVSiddr3KEovU6tW7ceO0baHRx1xXLmtvB49h5OTE4yMjMR2ZZKbmye6jUmOtJ6RmS3WGWOMserkxo0baNuuDfr07Y0BA/ujUeOGuHjxojhGRSuaNW8q1pW6d++GhQsX4vfff8ePP/6ApUuXomOnDuKYnb0tvvr6KzRv0Qx9+/WBey03URSD/Pffv2jXvq1YV2rfoZ3YT3mPf/v9Nyz6exG8vbvLRzVbles+1tXVgYuzS34AWZVc9AtHTKyiiglNOLkTHCfWGWOMseqEhngN6D9A9OxduuiD8eMnYOKkiWK+AC1U1aywvId5Yv8rr7yCgQMGYsqUKTh18rQ4RvHC4UOH4HPpMq5f85POmSuKZDzxWtI27X/9tdfRu3dvzJo5C4cPH5GParYqFzm5u9fC7dt3YGZWkJKGMcYYY1VDQMBd3Lx5s8gwsvHjxyMo6F6RsrbqmDBhAvT0FGP2x44ZI7qk790LFNvVSdVrTqvC6tWyhoW5olvbwtwQjTztxDpjjDFWXTwIDxc/7e3txU9ia2MrfsbEli1VW82aNeU1wNraRvxMSEgUP6uTShMUfvvdt9i0eZO8xYpjbmog3ckoxkfSGMjC4yoZY4yx6sDYSDHJsnCeYWVVM1MT02K/G2kSSUnS0xU5gImy2AXNLSjLtTRZpQkK3d3dYWfHLV8luR+ZJP3hK2ZFpaZlIiwiSawzxhhj1UWjRo1gbm6Og4cOynuAI0ePwNraGg0bNoSRoRFiYmLyxwJSV7C/v79YJxToPTpO8NjxY/IacP78eRgaGqJ27dowMjZGdHS0GENIaHZy4S7q4q6lySpNUDh61Gh07tRZ3ipA/7BZWYqEzSQ+Ph5pacUnl6Zzk5MVEzEeRXcRGRkFdwKPSkxMFNeuzMIik0UwSLKychGfpPml+xhjjDF10Ni/7777Hq++Oh/vv/8e3n33f2L9m2++FZNGOnfuLIK44SOGiePTpk9Ds6bN8oM3r7p1RW7BV+a+gtxcRREIChrnvDwHn376CebNn4s333xLPE/XLl1F/DBy1Ai89967mP3SbDRp0iT/WnW96mL9+vWYO2+u2NZ0lSYoHDN2NL7+5muxPnXqFHzwwfvo2bMHOnbsAFc3Fxw5chijRo9E5y6d4OhUE4sXF+QRpKnjdTw90K17VzRu0gh9+vYRASKhQJAe51GntkhW/eGHH6BHD2+sWr1KHA8OCRZTydu0aS2uTVPcaaq7usp7p6C8CymJkYEudLS1xbqurjZMjfXFOmOMsYqlymdyZVRRrVYV+fvnPYX/lxMnTMSJ4ydEDuL69evj4oVLGD9uvDhma2uL8+cvYOiQoWjQsCFWrVyFn376GYMGDRTH//fO//Dll1+hW7du+ZlK3nrzTYwdO1akpFuxfAXee/c9sd/R0REXLlwUM5YbS8Hg6lWr8esvv6FPnz7i+IcffoRPP/sM3btxSpoKRcFbjtxPT5H7hg0bsEr6n3/r1m3069tPChrHSP9I74vp4p99ugA//PijOJd88OH7ePutt8Wxu3cCkJ6ehj///EMco/xBV69ew62bt8VxUzMzXLykyGVEpkyejCZNm4rnoeP0Dz9x0gT5qGoOH7yOXl0/x99/HUJSYtla7379aS+GDvweWzZfQHaWorrKoxp72cFKTlhtIgWE7k6KPIuMMcYq1lXfy/D1uVSkjn5lFxwUg05tP8b33+xAZETZJ0nQdbp3+gx//LYfsbFFC0OUxaur1+AlKdA6dTdA3lMxatf2wJQpUzFp0uQiE0UIpaajYxQoUk7i5s2bi7zFhPIejx0zFiNHjMwfM0hBcJfOXTB9+gx06dJV7FNyc3XD1Kkv4oWxL4jMJi1btoSbm7s4RnmOx70wDsOHDxfbmq7SBIWP6tGzZ/7MIgraqBIJ/aOK7SaNERUVKdYJ5SiaMWOmaB2ksQNenl4ICFD88R0/fgyDBw8S4w8IVTBRJrOmsQFnz53F/HnzxDaZNWs2/Pz8xNT2kmRkZCMmOlmxxCRLHxyp+FN6A/Xt+aXKb8iUlIz8ayQkpCL4XjQ++3AjBvT5BsuWHMsfP1gcSmKdk/Psax/TXShle+eFF154qcoLlT6Nlb5TLl+8iPNnzyAiPLxSth7SZ7Lye+R+WBzS07KwavlJDOzzNT58bz0C7hZ8V5aEvk+U14mMSEBiQhr++esQ+vf8Cp9/slkEiupIzshAbEqKWJIz0nEjJATvr12LSX//gz3XryG3glo0WcWqIf2RV4q/8iFDB6N1q9b44IMPpah/ooj6aXwA+eXXX7Br507s339AbFOgN3zEcOmPV3EHR5nI//rrT7i4uMDExFR6E9xFhw4dsGzZcnTr1lXUM1aWyCOU+fzdd99D/Xr1RUZzuosoPMOI/pds27odbdq0kfcU6DdzJdydLdC3iQM+eX+DvPdxOjpa6DegOaZM64baHnZYueMqzvhFSXcqNXH48GXsXjRBvNE2bTgnP+JxVNJu1Nj2GDexE6ytTfDvRh/sOn4HnTs3xsEDPpg1thWGeNeTz342IqWg+/rVK/IWY4xVTbq6uo/NMjUwMICrmzscnZygLTcuPG2hEUn4ZOER/LdgCD794yh8b0ZI3wFNcPNGMMb2qYemdWzRs8sC+ezidelaH1Omd0XzFrXE9uLNl3HpThzc3eyl79Or2PHHOPj7hWH86N/E8eLQd2Q37waYPLULmjZXtJKRyNhUvPLFbrRv3xC+l+/g3WkdUN/DFu9u2oQzN26Kc/Sk/5dZj/y/tDY3x+h2bTGkWTMYSMfpu9XJwQz/fjZYPuPZCQwMgINDzUpZyexZq7QthaqiWUJffPE59u87gJMnTmHvnr3oLff1Ez19fWTI08uVlJNRTE1NxU/KYk71j5VL+IOIYgNCdeTk5GHHtksYMfgHzJ+zFEnxiuny6qCqJYv/OSLu1L74dAuSpO3n0TrIGGNMMczp9q2bOHn8OO5JgYSmOH7sBl6c+BemjP8DV32D5b3qocaSI4f8MGXCn5g8bqEIIssjNjERf+7bjxG//ob/TpyU9z4f1A3NAaGCxgeF1F1MwV3dunXFdkJCAvbt25vfzE/T08+cPSvWydGjRxAVFSXWaYAqDSrdv3+f2CZUXFs5HrEiWFmboEFjZ+gb6Mp71OfobIn6DZ3gLN1FGRspJpeYmOijtoulWGeMMfbsmJgYi16pStLRphIjIz00bOwCO3vFUKqyUl7H0lIxvr28XG1t4eXgIG8xVV25cgXBwUHyVsXR+O7jBw8eoGWrFujbpy886tTB0SNH0LZtW6xdtxbff/eDCAqpi7hHjx7SNR0RFhYKf/8beO+998QAVEqYPWfOS5gyeQrMzM2xatUq9O/fTzy2OMru4/Hd6uDfRYfFvvj4VIQEFx1v4VHHHuMnd8aAgc1Fwuniuo9p3OCRg37i/AcP4hEdVTTvYJt2dTBRukbHznVF0/3ZK2H4Z7MvGjaqjUsXbmLBvO6oLQWMzxINug68e1feYoyxqikzI6NIGjP6DLaXghcXN/dnWka1tO7jVvUdMO+lJeLctLRM3LkdIdaV7B3MxRCk4SPbSIGsgdhXXPdx0L1ofPKBYkhUenoWbt9SVA1RcnSyxAsTOmLo8Nb51yFP6j7+6+hR+AQpWiXD4+KQXCiVnLaWFjo2aIBx7dqinhwQPs/u4+eF8h/SHAdLy9K/x2nsaGBgoJhfQSZPnoQ2bdri5ZdfFtsVpdIEhTThw9LCUrT4Xbp0SYzdoICOUJ3DiMhIdOzQUWzThBLqNu7fv7/YpvEABw4cEI8ZOHCQeMNu275NTFSh3IfUmnj8xHHp+hbo3t0bjZs0xmeffYZRI0eJx1NguXv3LmRmZqFVq1YiqHwSZVD450eKqe1kz87LeO+dtWK9XQdPTKBArpOi5VKpuKCwsG+/3I41q05BR1cbffs3E8GgV92is6mOXQjCkm1X0aRpHZw6eR3/m9EJrRs5ykcZY4xVFJ+LFxAvBTM0ttDJxQXOLq7Q13/2acBKCwq92yrGCZIbfvcxbvSvYr1+AydMnNIFvfo0lgIPRSozpeKCwsIosBw97Cex3rylO8ZP7IzuPRrkp28p7ElBYWHTlyzB3fsPYCR9R/dr3gxjWreBnZli+JZSdQwK582fJ4aqTRhfesaTq1evYt68uTh6tCDJ9tNQabqP27Vtl98FTNO9lQEh8fCokx8QEhsbm/yAkNB4AJo1PHnyFJHRnN7ENNWcAkJqVXz9jdcwSAoWe/XqLXIQUpNr4cCP8hDRNHSKuEsKCJ/EwdECAwe3wPotr+HPf6Y/FhCqwq22LV6c0R279/8PC74c/VhASHxvRiI2TpEegO7kHjzSssgYY6xiWFhYol6DhujYpSs86ng+l4BQXVY2JlIQ2AT/LZuF1Rvmod+AZo8FhKowMzPEoCEtsXr9PCxe/hJ69GpUbECoqiZSQD27dy9skoKauT16PBYQlsW9e4F48603RM8iJZ0+fea0fISKO2Rh4cKFGDf+BdGiRomqCzt56iRmzJyBGTOmiwap5cuX4ZBcHYUed+7cOfz0808Y+8IYfPzxR2I2+uo1q8X1KJCjhiYlKqbx408/4oVxY/Hii1NF3mSlvXv3Yv2G9eLaU6ZMFq913z7FcDV6TmqMWrduHf7771+xjxqoKEcz5W2m13fwoKJ39Pbt2/jo4w9FXuW33n5TDJP7999/8l8zte3R89DvSq+RXruyyEdsbCzefuct8ZrpsXTtL778okhRkMI0fkxhaVq1ao2kpGQ0bNRAJKnuP6AfPvtsAVylP9KKQjO6Fnw1Bp5eZR8XMWZse8x9tS9s7VTrlqCuDG3tKv/Pxxhjz0XtOnXg5OwsctppCnt7c3z743i0aKXIx1dW1OX82ZejxVj2ijCvZw+MbdMGhnp68p7yoW79bt27icB92rRpaN2qFYYPH4aLFxU5iCnXMPUWzpo5C2PGjMU777ydP1eAUs7REDFKeD1+/Hh8883X+Orrr+F7RZFVgx5HFU1MTUwwedIUUehi4MABuCMFZtOnTcf1a9fE9ZSGDhuKEyeOY86clzFkyFDMmj0Ta9auEccuXFBMhN24aZMUFE4RlVSoMgoFf/Xq1RfBnJeXp0iwTfmZe/fphcioKLz88ivo0rkzRo0eJQJUypBiZ2cv5k907NBJ3KBs2boV5y9cEM9DQd7nny/ACy+Mw+zZL4nAc/wERetvaloqfvvtN7z62nx06tgZE8ZPFEEoDcsrTpWPKmhG0c4dO3Hq5Gn88cefIon1m2+8KR/VLK0a1oSNteIOy8LcEA0eaaJnjDHGqroHD+6LCaOTJ09G167dRGLpUydPSQGWF27evIkdO3Zg+bLl4hj1Kn7x5Zf4+eefxWPXrVsreiZff+11dOvWHUuXLENERNHxky1bthK9h/369cOgQYORlp6Gjz/+BN7ePaTnmoorclq2M2fPiMBv2dLlomdyyJAh+PCDD/HTT4riGtR4Q8PS/lj4h3iu9997XwR016TAkrqNTaTAs3nzFmjfrr1If0SFOb7/7nuRRHvixElo376DmAhrZ2eHxo0aw8rSCkOHDhV1mZUon+bvv/+Gr7/6Bn379hWP/f2330UrJeVbptdAZs+aLV7foEGDMGzYMPj4XBL7H1Vtmppo4kq9evU0eto5tQxqaRXkU2SMMcaqGxoyRsERlaedNu1FrFy1Era2dmI+wdVrV8UQss+/+FzUNqZl8+ZNCAkNEenoAgIDUL9BA/lKEIUtmjZpKm8peHh4yGuAoYEBarkXjNs0kAKy7GxF1bFrVxXP9d777+U/1569e0RrpBIFqsrAjH5SDPJo/ktCcyJq166NBZ9/Jrp4hw4bguvXrz2xm1eJJp8kJiaKesxKNBmFXtcNOU8k8fIqGNZmbGRc7Gsg1SYopEGa4eGKu4Hr16/j/v37Yl2TBN1PELkLSXJqJu6FJYh1xhhjrDpZs3otdu7YhdpSAPfHHwvFEDFqJaQuWWqNo7rGymXEiJFYsWIl9PT0xCzeR8dHPjpEQBnEKT26rUTPZWxsXOS5xo0bLwpnKOfwPuGhj6FAsmu3LnB2dsH7732AH76n7CmN5KNPpqx1/ejvRNvK10Ce9Ds8qsoGhdSkSmXslN597938fISvvjpfDMrUNDTLKz1DcdeQk52LlLQnl8FjjDHGqiIaf0c5hWlSKnXJnj51Bk2bNsOaNatFN2tKSgq8u3uLCae0DBwwEIMHDRbBIqWmK5zfj8YnXve7Lm+pp1HjxmLSx4D+A/Kfq3+//hg6ZKjKQZjSoUOHRG8mleKlVj+q0xwSEiIffTJXV1fRKnj79i15DxAaFiomxzRoUF/eo7oqGxTSjKKXX5kjbwG7du4Ss5M1mZmJvvSPryitZGCgCwcbE7HOGGOMVRc0saNN29aiGAWlqKMxejR+jrp9GzRoIFLLzZ8/TzQMUbfx9OnTMPVFxff/oIEDcfDgQWzduhW3bt3C3Hlzxdi+sqCxie7u7nj9jddFTyTNiKYJHvNfnS+fUTLqMr569YpIq1fTsaYUrAaLnkwK6ugaRkaG4negLmQDA33Rw0kZVCjoVaLuaJpgsmDBAjE7mWYZf/D+++jUsZP02gq6vVVVJYNC+gP55ptvpMj5jpjeTREz1UamWTzFoQTWNP2bppOvWLFc3IVURvVr28DSQjEm0lAKCm2tKiajPGOMMaYpaNLGF198KS1foLt3N8yd+wpmz3pJTM4gmzZuhkNNBwweMggjRgwXAdcfC/8UxyhX8W+//oa/Fv2F/737DsaMHi3S3im7X1u1bAl3t4LazjQmsHGh8XoODg7o2FGRIo+6nakLm7qlKbPJ2BfGomGDhvju2+/EcerabtG8hVhX6tqlK2xtFZNEP/n4Uxw/fhxfffUVRgwfIb3+iZg8ZRImT5okCnL88suvCA0NleKXv8Qs6gYNG2D6jGliX8sWLcQYRPKrdF6HDh0watRIDBjYX8yhWLdO0RtqaGCIHj16FkmpRNXcmjVrLm8VVWmSV1ckujN4++23xADM119/QzTpduveVSSIpOnaPXv2kP7HDcRrr74mpnFT9ZMvPv9SRO0ffvQBunbtKv2jfi9frajiklerorTk1aooXNHk3Fl/fDynK89AZoyxKkyd5NWqKi15tTpUSV6timeVvJpmLV+4cAEDBgwQ2xQC1atXV8xQplihuquSLYWUg7BRw0YiWh4rRddURqY46enpIunkwt8Xiqnaffr0wT9//yui8sLNs5XF5RsRiI1VvC6acHInOFasM8YY02ypqamPfe8oJ0eWB33P3Q8LQ1hoKJKTylfw4GFeXv7kBXqtlBhZXcqJEYQqxiSV8zWpKzMrE9Omv4hXX3tVJKSmpNI0G4Ra5lgVHlOoijt37og3zLr160VmdFqWLF0iJqnQLKbKJis7F7mF3lCMMcY0n7+fH5YtWYx1UpByWK5SQQ7LFS3KateOHVi9cgXOnzuLixcuYPOmjVizaiXycotPR1KSoHv38Puvv+CvPxbiwvlzWLt6FXZu34YTR/bLZ5SOXsfvv/yMJf/9i+PHjmKH9Hi6ju/ly/IZT5+LswvOnT0nuoEvXbooqphRjsOyjiusaqp1UKi8Y2nerJlIIElL69at8e+//4kZPZWNl7s1zM0UYwrNTA3ENmOMMc127eoVTJsxUyw0Pu3UiRPykbKj1kGalUrXHDZiJIYOH47JU19E4yZNkRoXLJ+luss+Ppj50hxMl67nK62/OH2GuF5mZgZqQLXGinuBgZj76mvoP2AgIsLDMWnKVEyfOQt379yWz3g23Nzc8b93/ocfvv9RVCKh0rlMoVoHhcoEjzTgcvy48WIZ98I4MeCTMohXNpZmBtDXV3SFUyJrfb3iu8UZY4xpDm1tHWRmKHLQdurcBXFxcbgql10rK5owqW/weL1mUcDhYVkmUz6Ero4OtKVFR/reVE7M0NJSvQwgDeWiVC16+vr5w7oU11EvfQt7eqpsUEh/dDRDh6ap0+zj4lBz8fBhw/H++++JySmUFXzBgs/QuUsn+YzKJSY+DRkZimb/dOlnVGyqWGeMMaa52nfogBXLlyE3R1EpgyZChkrfSdTaV1bOLi7i8Zs2rMfRI4dx/OhR7Ni2TXRPG1mq3xNWt159/PfvP6Lr18XVVXT7bt+6VXrN2VK4qFooQbWKly9dIl4TVQahx9N1aHYwqxyqbFA4aeIkmJuZi4LSEZERomvY0VFR3Ltps6ZwdnYW61QPuX379hgyZLD0xmyPgIAAbFi/QRyrbAJC45GUnC7WKTiMlCedMMYY01xO0vfR7Dkvi1Y4oqWtLQWGgzBn7jyxXRbUAjduwkR07NRZdI9aWllK333N8OK06dDWLaidq6oGDRti7LjxeEFaevbqja7duqNho0bo0WeQfEbpevTqhUGDh4hu4379B4hUL/T6aGGVQ5UNCmkQ6ZEjR3Hh/EW4ubqJvESDByumutM4glEjR4l1akr/9NPPcNnHF/5+/qI8TVkSPj4LWjVqgP4jurraMDV+vGuAMcaYZqHerIP794uJHD99/x0W/bFQtOoVnqlbFrdv3cLuXTvFtY8dPSpaDP39/eWj6klLSxNjHU+dOon4+HjpekfEcj9M9fGJNFll+7atOHTgAO7euYPdO3eIySahKlTueJSyaseDBw9w4uQJkcSaUIUR2qZEzo+ifcePHxMJoAujNDXUU0gzqk+fOV3m/0dVQZUNCqui1o0dYWtrKtZNpIDQ3clCrDPGGNNcFKzZOzjgpTkvo9+AgWjTrp1oRdu6eZN8hvooOKLZvqNGj8Es6bpubm4YPmKkmNSRkRQhn6U6eo1Ozk6ix231iuWipZCu53vpvHRUtXTHp6WActCQoXB2ccZZKfii1tHJU6bi3Nkz8hmq69atq8grPGnSRHz80Udo0LA+1q1fhyFDB+O7775D48aNsHv3bvlsYMaM6ejRwxt//vUnXhg3Ft7e3fOHls1/dZ5IgN2zVw/88MP36N2nlyJVTTXEQSFjjDH2HFG+vqZNm4ruY6+6dRFw9y7ca9WCqakZsrMU9e7VFRcbC08vL5iamcHQ0BBGxsbIkIKg9h06IistTj5LdVnSY2nmMnUZUwBb09ERFpaW0mIlBRKqtWgaGhrBysoKtT3qiPGF9Psam5iIyiDq0tbSRkR4BA4ePITDh4+IEnfff/8dDh44hO3btmPChImiFjKhVsW70v/To0eOYc3qtVIQeh537t7Bnj17xHG61rHjx7Bn915RDeXY0WNYv2G9KJdb3XBQqEGu34lCXLxicklCYjr87kaLdcYYY5qLUqRs37YN169dw7YtW+Do5IQH9+8jPj4Ounp68lnqcZSCtiu+vvC5dEnkFQy4c0cKxCxEi5+ekZV8lupMTExFS9+ZU6dEVy3lVgwOCpIC2hgpJFQtqHv4MA9HDh8S+Q1TUpJFmptTJ0+IiaFl0a9/f3kNogaxd3dvkVGEUMtoQmKiWKfchBQ4Ul5i6j6m2skUcEdEFCQH79WzFyylIJdQ2TvKTkL/76obDgo1SGp6NnJyFKkEKKt8ecebMMYYe/7ad+yIOp51EBUVibr16qFDx06iZW/sC2UvP0eze0eOHoPUlBRkZWZh7PgJIg1Ml67dYGDmIJ+luq7du4uf2jramPLiNDEO8NLFC+jQ2VvsV8XAQYNhZWWNzl26YujwEfkVVnr17iN+qstA30BeUyhc35coq69QENuxUweMG/8CVq9Zg127d4ugtHCVX2vronl/zczMkFwJK5s9bRwUahBHWxMYGSnuGg0N9eBkbybWGWOMaa7s7GwpQEqGsZExPD09cWD/PhzYt1dM6CgXKeih7uMmTZuKPIj79+5FdHTZeph0tLWlwMlGdPtS8GVtYw0zc3PoPRKYlUZLq4YIxuh6D6X/8nLzRPm8p+nvf/4Wlcqo2/ivP//CTz/+JIK+wpKSk+U1hWRp28xUMYa/OuGgUIO41DSHibHiDWigrwMrc/XTCjDGGKtcqEs3JTVF9P6sXLFcCkbM0LZde+zZvUs+Q300W3jd2jVITEgQM3yp25ZyF97w90NGkvo1lU+ePIHr167izu3b2Lh+HeJi40Sqm8P7dshnlG7L5k2K2cLHj2Hb1i0i+wcls94vBcBPU7r0/4JaKJUJt3ft2iXyGCt73sjhQ4eQIScQp7zFNAaxZctWYrs64aBQg2Rl5SJXuqsiGZk5iEtU5CxkjDGmuWKio0XuP+pGpsCwTdu2cHVzE5MysrKKL75QmnAp+GrRoqXo9m3UuAmcnJxFrkHqPs5KU78FMkwKooaPHIUBgwaJiTGUc7BZ8xYwkQJYLahWIYWqrPTp20/MWqYUMK3btEWnLl1EKpinaaT0uqnO8fARwzB02BBsk4LkSZMmY9Hff4kAkVC3ff/+/TBz1kz08PYWaevatGkjjlUnHBRqkMs3IxAbp3jzpKdn4X6kYjwGY4wxzUWzeKn+MXWr9h84CDW0tERKGSp3p6tbtokm1D0aFhaGPCkQowDTs25dsZ+qnGjpqNflS4yMjMXkF9K9R08xYzgrKwspyUnIUzGUoC5cCgBpYgkFp6SsXeR79+5FLykwVaL8w/PmzZe3gOnTpouuYkIzu6/4XsUrL7+CLz7/En8v+hs//vAjli1djrZSAE4a1K+PrVu34YWxY7Fu3XosXbpM7K9uOCjUUNTkrmwKZ4wxprm6dfdGSLAi2XLNmoqSb5Qo2lsKvuizvixs7exg72APX19fMeuY6vlTqpubN2/AyNJFPkt11OJIJfJo/B+luiGUR7F+4+bSmmqvkXIbHj54QKzTNSgIpjJ3ygBRHbVre4hStUo025q6s5Vo4oiychmh497ePdCwYUOxTbOUW7ZsWeQxFEh3l/4tWrRoIe+pfjiq0CAN69jC0sJYrFuYG4ptxhhjmo3yCA4YNLhIAEjdtLU9POStsunUuQtaSIGPkkedOpgwaTK0tBVpW9RBgeXEyVNEK6bS6LEvoG79RvJW6dzc3TF46DB5S9G48dLLr4gyf6xy4KBQg5gY6YnydowxxhirGMuXr8CXX34lb1VvHBRqkIiYFDGWkKSkZiLofoJYZ4wxptkK58xTojF4VU1l/D1pKBYPx1Lg/wsaJPhBIpJTFFPms7NzkSwFhowxxjQfTcDYvHEjMtIVWSUiwsOxcnn5JzvQ2MSoyEh5C7h04QJS4xTjF9WVlJSEI4cOiVnEhJJP79u1RayrilLaHDtyREyAITf8/bFrh+ppbdjTxUGhBjE1Lug+1tPTgaUZ5ylkjLGqwNTUVIz/W79urcjbd+zoEQwbMVI+WnaUhoYmiFA5ufVr14jgsywTTQi9RgtLC6xZtRIXz5/H5k0b0aJVO/moahT1mE2xZvUqUdIvODgI/QYMkI+y542DQg3SwKNgoomxkR6cHbiiCWOMVRU0Q5gCL8oJSJMvaL28LK2sxISTK5cvixQylAOxRo2yffXTxJAmTZqKa548cVwKYlvB1l4xW1pVdA0XF1fRjRwXFyvqPuuVsb4zq3gcFGooekMVNzaDMcaY5qGqG2vXrJaCtnZ4cfoMGBsbY9WK5fLRsjt75jTOnzuHqdI1KfUNVTnJSouTj6qHKn4sX7YUtWrVxtz5ryIyMgKH1KhoQij1DpXxGzxkqJjNHBYW+tQrmjDVcVCoQXxvRCA2VpG8OiExHdfvRIl1xhhjmo3y5lG6GGV6luYtWmKQFDiVVx1PLwwfOVKkvaEyd+MmTISWlo58VD1aNWpg5KjRoktaW0dHVGFp1LQg5Y0qbG1t8cL4CaJuso50jV69+4hAmFUOHBQWQmV36A6GBuZSgXKlo4cPy2slu+Lri//++Ru///KzWP79exEu+1ySj5YsLjYWG9atxc7t20V5on8X/YU/f/8Nt2/dks8AMrNzkfuUC4czxhh79nSkoPDRblTKDVhehZMzE3oOHYOyDT2iSiSmZkUfa+/gKK+pxlCud1xYRfyerGJwUFjIrh3bpbsYO+gb6IsBudlZivQv9++HiZ8lofI/NKuK7sJemf+qWCZMnISQ4BAEBgTIZz0ZDSqmAuj1qNTO5k0YK91JTZ02HRfOn5PPANxqmsPEWFGeyNTUAJ5u1mKdMcYYY6y8OCgshO5emjVvjlat26BDx07YsX2byuP2aMAsFdSmJnolA2m9UePGoth5aei5qT5lHU9PWEt3dlS+hx5P9SaVHGxNpG3FnaSOthYM9MvWBcAYY6xyiY6KQmSh1DHkXmCgvFY2uTk5orHizOlTOH3qJPz9/JCZoUhrVhb0+mJiYsQ69WL5XvZBVpbqqdGoRB5NoklOTha5Cal3jV5THveAVRocFBZCBb6vX7sm1mvVrg33WrXElHllTqaSuLq64fy5s6KoORUcp4WuRS2AqpQqoib1I4cPYc+uXUhNTcVlHx/pWleRkaHIWUViE9KlN7SiWztd+hkdlyrWGWOMaS6fSxexfdtWHDl0EDu2bRPBE6FArqwo6FqxfBkCAu6K8YoG+gaIiAjHimVLkZul/neHz6VL2Ldnt1i2bNoogs34uHgc2qv6RJPdu3aKiS+bNqzH9q1bRWMKBb6U+5BVDhwUFjJg4CAkJhZUCaHp9tTSV7Nm6WMmaNDs8BEjxZuEunxptldMTDSGDBsOG9vSaxT36NlLjKugYJQGGyclJiI8/AH6DxgonwHcDYlDYrIiSMyQgkKqcMIYY0yzUavb5KkvYuy48WIyyMEDB+QjZUctcl5eddG3X3/R+9WiVSt49+iJ3n37ITU+VD5LdUH37onZwuMnThINF1SbuXuPHjA0MpYCCdVa+jIzMzFy9BiMGDkK2tpa6O7dQ1yn8Pcue744KCzkzp07UhDYRN5SoO7cXn36yFtPRk3/V69eQfsOHTB0+AgMGzFCTP+3tlZt3B9ld6fxjDSm8K70OugOCg+lfyDt4msda2nVgJ4udx8zxpim09PTR3x8vFhv3qIFakif79TlWx40/Ii6eh8dAhUdHSV9r6ifF5DKwKVJwSAFhFTJRDnmnnqzHqLoxJEnoTyJ1PNGvytdh9CkTlV649izwUFhIVd8L2Pv7l04ffIkcgrNPlYFjZGIjooWWdqvX7uq9hiJPbt3ixJCNGGFuhJat2kLRycnbNuyWT4DaNvECXa2iplf5maGqFuLJ5owxpim69ylCzZv3CDGABLqOcrKzEJYWOmTHJ/EwcEB5hbm+OuPhaLLmErmLfrzD4SGhMLYyk0+S3Vt27UT11mzcgW6effAf//+gz9++xU2tvYqB4XU80ZZNSjxdf0GDfDXwt+xSHp9TZo2k89gzxsHhYVQzqQxL4wTJXgoQee+vXtw88YNREWplg/QydkJ48ZPEKltFktvmL17douxgYkJpTeNp6WlitxPdGdHOZuoC4HeQDQWhDHGWNVla2eHWS/NQXpGBmJjY0UrWtfu3fHm2+/IZ5RN127dxXUHDx2GAYMGY9qMmRg6fDhqaBXfA1WSmo6OmP3yK5g+a7YI6CjB9pQXp6FV247yGaWjnrg5c+eJLB2Uh3HYyFGiO5omabLKgYPCYjRu0hRTpT/2OnU8pbuqENGCqCrKNdWxU2fxeE9PLyQnJyFNLnBeEhq3ePjgQVhaWorxJRSIXr3iW6TpX4wpTFJcKyklQ2wzxhjTbJSndsl//2Lt6lWiQWHj+nUiVy19/5QHNUpQSyG1EC6Vrr9EujZN9CiLqMhI/CO9Jnqd9B3139+LRF7ey5fOymeU7sK5cyKHL13j+LGjomeO8vP6Xlb9O5Y9XRwUFmJgUJBOpoaWFjzq1BHjCSnjemkMDAyK1KmkbO/0+C5du0kBX+m1IemukFLR0Bs2KipSzPCKi40T4xOVxOzjTEW3dm5OnpiBzBhjTLMdP3ZMtORNnzkL06bPEJkvxk+aLLJXlDVdC7U43r51EzNmzcYbb74lvo9oMgv1ZKUn3JfPUt2Z06cxiiaJjBqNgwf2i1ZHyscb+YCupVrqtsDAAMx99TUxgTIiPFy8Hmp5vHvntnwGe944KCxkxKhR8hqQkZ4uptzTBBJV0Pi/wpNU6A+eJoxkZaqWw4nyFDZt1gyjxowVzentO3RE3fr1RbCpZGVuAH09RXeyoaEeHO3KlpWeMcZY5UG5/izMzcU61Tym7x3KeUvrZZ2EQRks3NzcxRAkaqSgtGdJycnS90xzZGckymepLi8vFxaWljAzM4O59Fqpugl9b9F1tVQMCmmIFj2GHqujo/guowks0jegWGfPHweFhWxcv178TElJwWLRRH5TJLAuXFXkSYKDgnDx/Hmxfla6o9qzexdu3vAXzeQ0Y6s01F1AaHYWPeaGvx8O7t9XpMQeVTAxN1e0ZlLiamuLgpZNxhhjmokCtWVLFos8tfSTJl5QowQp67hyqqFMGTGom5byANJ3lJUU1B3Ytxf6JqWnSXsUjXNft2a1qPZFpfL27dmDk8ePIzUlGXkqhhLmFhZYvnSJyFNIDR47tm0VXeaq9KaxZ4ODwkIyMxWZ3qkpmyqaUHM+DaS9dfOm2F8SupvLzlF0596+fQuTp0zFwMFD0LFzZ9xU4fGUv4nQG5cmmFAhdMoJFRISLPY/KjsnF6npipQAjDHGNBdNtBg19gV4enlhzLjxYpu6kKmrtqwocKNeJxMTU1hZW4n8t5TijL5byhIUUkYMGi/fuUtX0aPl4uoqSsJ69xkkn1G6nr16Y5D0vThJ+n7sN2CA6F2ja9L3JKscOCgsBo0tpCZuovypDqNCBb+1tXXys9OrgroMCj9n4fUL1x4gOiZZrKekZCIwVJHXijHGmOZKSEjA/r17cNnnksjbt3TxfyJ1C00UKY+Q4GBRXcvc3EJUDvn370U4deKEWt9JSunp6bhxw1+UpaPer1s3b4iqXdGR4fIZpaOSr6dPn8LlS5dEVo5TJ0+Ilkxl6Tz2/HFQWAiNbaBZWkcPHxLl6gh1A7u5u4v1klATP72B6fHB0hvx3r174o1O1/KsW1c+68mo1jE9dteO7fml9o4fPSoSWivlPXyoci1mxhhjmuHYkSNo1ryFGEu+bvUqkafwpVfmitrCZZ1oQgmiz509g4aNGuHihfNiSBKlXKNximkJ6s9qpi5oGk9I6XMo56GX9L02ZOgwXDhLpfhU+17atXMHatf2QHpGOjZt3ICevfugU+cuOHyw/BVcWMXgoLCQF8ZPEDmdKBfTWOnNQ+gPlprLS0NN6XOkNzE9/rXX34C7FEiaSG8+6n6mN1JpqBwePXbWnJfx4rTpYh9ltu/bv79YJw08bGBpYSTWKXl1/do2Yp0xxpjmojy11HVM4/ZMTE3F9wk1NNCEDmVCa3VRmhvKfUu19xs0bARHRyeRIYMmMOZmpclnqY5K0bVt1x5NmjaFrp6euKaVtbX0/WYuBRKqBa7UpU05DrtI36na2toiwTY1ulCdZlY5cFD4BJRvkKgS0D2Kxm3QQtegmVnqUj636SPPbWqsL31QKErbUZk7HR31E5AyxhirXFxd3cQkE+rWpbF/hMayU5UrCsDKws7OTnT1UoshpaOh7BY0dt3n4gXoGqj/vUa9VlR6j3qrho0YKYY2UQWu5OREKSRU7buIHhtw9674flSmW/O7fr1Ilg32fHFQqEEiY1KQLk8uSZN+hkcrxhcyxhjTXB06doSzi7PIj0staCQlORnDCuWpVRc1KlCeXGox1NfXFw0UlOrG1NQMBuZOyMrKloLELOTkqNbK17VbNxFUUjBoYWEh9t28eQNdvfuIMe6XfW6LMe/6+k+uyT9w0GDEyuMHldcIuHsHvfr0Fes8POr546DwETQQtvCgV2rWplrEqqI0AoXHgISHh6uclT4uLk6U1VPKzMgQSUKVgh4kIj4hDdeu3UNGZg5i4tXvAmCMMVa5UDD4aP3flq1bi7yA+nraeBCZjFmf7MBZ3zBkZOTg0oWbCA2LhZFByelqqOuYWgmVqHu6ixTcebhY4oH0+Ms+d+HiqMiPWBpqsezW3VveUvDu0RP169bGok8H4f0ZHbHwowGo7WwpH32cmbk52rRrJ28pUAk+6tZ+bUp7vDS2tbyXPS81pMicQ/NCkpOSsG3rFtSrVx/Orq6iDE/LVq1E6TvSb+ZKuDtb4M+PBortR1G5nuvXrqJf/wFiphYFhHR3tO1YEM74RaFWrZo4fPgydi+aID+iAM06O7B/H3JzcsW4ixPHj4kxjTTWhOw9cRcrdl5D7dqO0h1aMD6Y3QVN6zqIY4wxxqqm8OgUpGdmQ1sKHilITMvIhlaNGnB3UrS2MVZRuKXwEdTkTrmdqBwPJRGlXIPKgFAVzZo3FzOqqEYkNdXT5JVHxwY+CQ0spmCSstBsWL9O5HRSBoTEwswABtKdoaWVKfR0dcQYQ8YYY1VbTVsT0QLn5mgOBxvFOgeE7GngoPARaWlp2LRhg5h2P3rMWOzcvk0MjFUVFQqnusXjJkwUSUO3bt4s8jupIl167tUrV8DOzh4vvzJX5HA6fYqm+zPGGGOMPV0cFD6Cuo/btW+P7t49UKt2bdHSFxUVKR8tXUZGOsZJj3F1c0OvPn1Ey2FkRIR8tGQ0frF3n75izAWNvaCcUmWZ/cwYY4wxpi4OCh9h7+AgBuMq0awtSiiqKhosXDiFAJUqokUV1M1MLZRKNMuLygAxxhhjjD1tHBQyxhhjjDEOCitaVlaWmGASJS1ZmZnyXvVlpKcjNTVV3mKMMcYYe7o4KCwkOCgIi//9B2tWrRQJP5U2rFsrrz0ZZaKnusVUyPzwoYM4Ii1LlyzG9q1bkZubK5/1ZIEBAfjtl5/x76K/RFH05UuXiPqSJ08cl89gjDHGGHt6OCgs5NjRI6IGMSXk3LF9GxISEsR+av0rTWBgIIyMjTFz9ktigggttG5ra4sb/v7yWU9GgeAs6Xya2HLx/HnMmDVb1EK+HxYmn8EYY4wx9vRwUFgIlReytrYWk00oy/r2rVuQkZEhHy0ZBY7FzRSmjPRUmaQ0NKlET18fBoaGYqEM90RHp+SM9YwxxqoPqjdxKzpA3mKsYnFQWIi1tQ0O7Nsn1i2lYI5aDNetWa1SSyGVE7p65Qp279yJs6dP4+yZ09ize5fIM0jVSUpDM55XLFsquo2trKxEtzNdS1kHkzHGGDsWcAazV7yE9GzVGiwYUwcHhYX07tsXdTw95S1FoEYFyVu1Lr0eI6WumTRlqggAqTKJjo4OvLzqYsrUF0W3cmnatG0nqpmMGDUaAwYNRqPGjUWexEGDB8tnMMYYq+6WnV+N9IwkbLq6U97DWMXhoLCQ/fv2ivrDhVESaVXK3EWEh2Pvnt2ws7cXhcxbtW4jCpFrS8GhKmJjYnD/fhhMTUzE69i9a6doZbx//758BmOMserMP/I2bgRdFOtrz68TXcmMVSQOCguJiY7GAykIo9nGqlYhUaLyeHm5udi6eZPoOlaly7mwgwf2w96hJgICApCXl4c5r8zFyNFjxExmxhhjbNn5NfKa9H0VH4qDd07IW4xVDA4KC6HJHt28veHdsxfOnD6FJf/9iwP794mxgqqwsbUVJe4MDQ3F+MBNG9bj5PHjiImJkc94MgoE7aTHUzBZq1ZtaGlpwdzcHHqFqqMwxhirnqJSYnDC74C8pbDi3Gp5jbGKwUFhMWgG8tDhIzB23Hi4uLhKwaJ8QAU0a7hps+aYNmMmOnbuAiNjI5ouJh99ssZNmmDN6lVIT0vD+XNn4XPxosh7aGllJZ/BGGOsulpxcQPy8nLkLYXbob64Hn5T3mKs/DgoLMTF1VVeU6AWv3r166s0ppAmk1hZWctbCg4ODmjRspVoQSwN1Tju268/snOyUbOmI5KSk6TnbiAmnzDGGKu+aKbxTp8t8lZRS85zayGrOBwUFkItfEphoaE4fPCgaLFTpSIJpZFxlYPKnJwcXDh3DkcOHUJ4eLjYV5rExERY29igXfsOaNy0KR7mPURsbAyy1RybyBhjrGrZdn2PmHFcnDM3DiEmtaACF2PlwUFhITu3bxM/qXbxnl07RZBG4wFpNnBpKIj09b0s1vft2Y34+HhYWVuJLmCaWVwa5XMnJydjy6aNsLSyFJNXtm9T7GeMMVY9NXNqjJd7vwFP56K9Vv1bjcScXq/BSNdI3sNY+XBQWIzQkBB07toNTZs1E7kL4+Pi5COqofJ49Dhqeezarbuoa6wqmv3cunUbNGveAt26eyMzkxOUMsZYdVbPrg4mthqF2nYe8h4Fb88umNByJIz0DOU9jJUPB4WFUM6nhPh4mJiaIi5O0RxPZe5U6T4m1LJHLX0GBob5pe3i4+NE+TpVUOuisbGx+ElysrPVTm3DGGOMMVYWHBQW4ujkhH1794h0NHGxiqBw7+7daN2mrVgviakUSCbEJ4h6yQkJ8YiMjBRdzzf8/VUqc0dpaPZLz015CSmQJIcOHiwyzpExxhhj7Gmp8ZBToqul38yVcHe2wJ8fDZT3qGbljqs44xclBX81cfjwZexeNEE+orqzV8Lwz2ZfNGxUG5cu3MSCed1R29lSPsoYY6wq+3jvt9jns1neAr5/4Vd0qtVG3mKs/Lil8Bmi+FuxyDvKID4hDdHRiYhPTJP3MMYYY4yVHweFZWBlpv6g3pq2Jrh3LxJHjvhCX0+1esiP8nSzEktuegpaNXaCg42JfIQxxhhjrHy4+1hNMfFpMNDXgYkRl59jjDH27HD3MXvauKVQTTaWRhwQMsYYY6zK4aCQMcYYY4xxUKgp8nJykBD+IH9JS1DkMmSMMcYYqwgcFGqIyLu38W3HtvnLxnfelI8wxhhjjJUfB4WMMcYYY4yDQsYYY4wxxkEhY4wxxhiTcFBYyWWmpuL0imXw3bZF3qMQFxKMk0v/w32/6/IexhhjjLGy46CwkkuNi8XOTz7EiUV/yXsUom7dwu7PPsHNI4fkPYwxxhhjZcdBYSVn5eKKut495K2idPT00W78RHmLMcYYY6zsOCjUAJ2mz5LXimo+chSMLa3kLcYYY4yxsuOgUAN4tG2Hmo0ayVuyGjXQ+QnBIpWzvnb1KuJiY+U9QFxcHI4dOYLjR48iIV6R+Do7Kwvnzp7BoQMHEBgQIPYVJzEhAZd9fOQthevXruLg/v24esVXPB95cP8+Dh86iFMnTyA1NVXsY4wxxphm4KBQQ3SaNkNeU6jfqzds3N3lrQJ5eXnYtGE9Lpw/h6ioKLEvKzMT69ashnutWnBydsaaVSvF/l07d8LAwBCt27TBmdOnEBIcLPYXRsHioYMHcFoK9JQokAy6dw9NmjWTjgfC5+JFEWju3rUTzVu0hKOjEzasWyufzRhjjDFNwEGhhmg6YDBM7e3lLaDrrJfktcf17tMXrm5u8hZQQ0sLI0ePgZsURHrUqYO8hw+Rl5uL5OQksc/M3BwODjWl7WT5EQWsrK0xfOQoeUvB09MLvXr3gZ2dHTy9vJCQkIC0tDRYWlpJi6V47jRuKWSMMcY0CgeFGkJLRwftJk8V664tW8K1eUux/igtKQCkIK8wXV1d2NraivVLFy+IoE5LWxvdvXtg4/p12LRhAyIiwlGvXj1xTmEWFhbyWgEKFPUNDJCRkYGLF86jWYsWcHRygo6ONtavXYPlS5ega/fu8tmMMcYY0wQcFGqQdi9MgK6hITrPeHIr4ZPQuL8jhw4hJjoGvXr3FvtOHD8mWvwGDx0qBX+WuHXrltivChqvSAEgPd5aChLDHzwQrYWDhw7DoMFDcOb0aTzMy5PPZowxxlhlx0GhBjE0N8fM9ZvRoJciqFMHTQoxMjZCn379RHcyoTGH1NVLLYlu7m5ioogqEhMTsWP7NgwZNly0EBIKCp2dXWBgYAAbW1vRPU0tiYwxxhjTDNqfSOR1pgHM7OxQo0YNeetxNFP45InjCA4KEpM/YmJiYGxsggP79sLSygqBgQFicahZE2lpqbh16yZSU1Lhc+ki2nfoAFMzM/lKCld8fcVM49CQEKSnp0NbW1tMNCHx0vXpWikpKajl4YHjR4+IFsk7t28jJydHdCszxhirGEfvnkJA+A15C+jduB9cLRU35oxVhBrSl7ginwirEijNTGxcnLylGGNI4wIpJU1htjY20NbREa2FqVJQZ+/gACMjI/loAQosMzIz5S3A1NQUWdJzZBbaR62D9By0n1ob9fT0UNPRscTglTHGmHo+3vst9vlslreA71/4FZ1qtZG3GCs/Dgo1SEx8mpg5bKivA1NjfXkvY4yx6oCDQva0cVCoIU76hOCLv47D2EgPqWlZ2PTrGBgZ6MpHS3f1diS+XHQC+lJAqZSZmYMx/RpiWM/68h7VbNjnj4iYFHlLwc3RHIO715W3GGOMVbQDt47B94GfvAWMbjYYbpbO8hZj5cdBoYbYdfwOth8PQN26rjhx/CqWfjkU5qYG8tHSbT5wA9uO3UUdD0d5DxARGQ9bUx188nI3eU/p8vIeYsDsVfCqW/BBlJOTi8CAcOz5e4K8hzHGGGOahmcfVyNGRvowNjHMX4yMDMo87s/N1a7IoqerLR9hjDHGmCbioJAxxli1RemzqMQnZVigMqEkPi4OEeHh+Ysy5ypN5LsXGIjYQnXln4Tytp49c1reUqDMDAf27cP5c2dFhgYSEx0tcsgePXL4sQmBjD1rHBQyxhirliggXL5sqUitdeOGv0jIT7Zt3YJrV6/C7/p1sVCwSHlXV65YLqo/7dm1E7du3hTnFiciIgI7t2/D6VOn5D3A7Vu38itApaam4vChg8jOzhZVpRo3bYr6DRpi3epV+YEpY88DB4WMMcaqpXQp0GvZqhW6dfcWNeOjo6JEqyCl1+rZuzd69OolFkrfdeXyZTRt1gztO3TEqDFji9SXf5SxkRFGjhoNfT09eQ9Qs2ZNUfGJSo7Wq1cfSYmJIijU0dWFjY0N7OXa9hSoMva8cFDIGGOsWjI2NkbjJk3F+v2wMFGNiSo+UbBGLX2rV67A2dOKLuDw8HDExcZhy6aN2LZlswgcn4SKAFB9+cJoHz1fbk4Ojh87itZt2orcsHU8PbFy+TJRM75ps+YiSGTseeGgkDHGWLV2984dMaaPSneSrt26oWfvPhjzwjjcuxcojufm5sDc3BzDRoxE8xYtcfjgQXGuOqjbeO2a1WjRshXc3N2RnJwsxigOl645fOQo0YVNYxEZe144KGSMMVZt+V2/Jsp5jhn7gmi5oyxtHnU8YWhoKMp6urq6ISEhXrT0mVtYiMfY2dtLAV2SWFcVVYHatGE9evbqDU8vL7GPJplYWVnDyNgYJiYmMJOegya5MPa8cFDIGGOsWqJxfYcPHUKTpk0RHByMgLt3RfC29L9/RetgWGgo/Pyuo1ZtDzRu3ETUfY+MjBSzij086shXeRxNKtm/b69o9aOf/n5+4rE0ieTKFV+x78zpU3B2dkZMTLRYP33qpKgjT3XpGXteOChkjDFWLVGrYKvWrUVgFhUVKRbK3DpuwkSEhz/A3bt3RJeytbW1qOdOE1L8rl2Dg4MDOnTqpLhIMRylc5s1a47JU18UP11cXESXc/8BA8U2LXXr1Yeunh6mvDhNOu4KNzd3cT61TjL2vHBQyMosKDhS+tC8L93dpst7GGNMc1B3MM0mtnOpj7gcO7EcPB+Kk1ejkaPvChO7erh4K0lUlKLlalAmLJ0aigkhJSX+NzE1FV3MykXP0BipmTWQp22cv+Q8VNSvpyDQWQoanZydoaXFX8ns+eIydxqiIsrcHbgQCk/PgvJ04eFxMNHJxcdzusp7SpeZlYPZX+xDwwZuuHEzFJkZ2XB3t5futBPw1/t95LMYY0xzzP1itxSQ1YC7k6W8B9h/8q746epqI34SKvMZFhardknPBX8dw2mfUJiaKAJBkpySifdmdUbnlk9ObVPY2Sth+GHpaRjoF8xOzsjMxnszO6N5fe5yZhWDb0uYWmIT0hERHo8sKTikwLBFizqifF5MTLL0AaXI0M8YY5pER0cLM0a2wGuT2uUvbk6KSSVeXi7iZpwWWqdz1ZWalo2mTWujXfuG+Yurqy2SU5+c1uZRt4NjYWJqDK96bvmLsYkR7obEy2cwVn4cFLJyy8nORWpqBnJyORM/Y4w9LaJ+vbFB/mJoWNDyyFhF4KCQqcXG0kjc4eoX6sLQ0dEWH1Y62vznxBhjjGkq/hZnaqHAT0dXp8ggawNDPTg4WMJAX0fewxhjjDFNw0EhU0ticgYiI+KRnVUwfpAGX+fk5Ir0DowxxhjTTBwUMrWkZ+aI8YO5eQXjB9Ok7ZCQaKSmZ8t7GGOMMaZpOChkajHU1xEDnLU5nxZjjDFWpfA3O1ML5Ua0d7CErl7B+EFDI304OlrB0IDHFDLGGGOaioNCVm7a2lowMNDj1kPGGGNMg/G3OFNLZGwqAgPCkZlRkHSVJp0kJqYiOydX3sMYY4wxTcNBIVOLcoZx4XnGmZnZiI1NRmYWB4WMMcaYpuKgkKmFxhTa2ZlDV7dg/CClLKS6oSUViGeMMcZY5cZBIVMLzT42MTUS4wiVjE0M4e5uD2PDgionjDHGGNMsHBQytaRlZCMxIVUkq2aMMcZY1cFBIVNLUkomYmOTigSFlMw6JDiKk1czxhhjGoyDQqYWba0aouu48OjBh1TmLjePy9wxxhhjGoyDQqYWWytjuLnbQ99AT94D6OvrwsrKBHq62vIexhhjjGkaDgpZuVF1EwsLDgoZY4wxTcZBIVNLXGI6HtyPRVZWwfjB3Nw8kaswNy9P3sMYY4wxTcNBIVNLVnYuMjKykJdXMH4wPS0T96VAMT0jR97DGGOMMU3DQSFTi6mxPqysTKGjw13FjDHGWFXCQSFTCyWotrA0KRIUGkmBoouLDYwMOHk1Y4wxpqk4KGRqyc7JReYj3cdaWlqi7B2VumOMMcaYZuKgsIpY9MdBLPhkM4LuRct7yubfvw/jh2934sH9eHlPUbEJ6WL8YOGJJjTGMDIyARmZPKaQMVY2qSkp8PW5hNiYGHmP5pg/Zyn+/usQEuJT5T1lM3PqIqxacRJpqZnyHsaeLQ4Kq4iI8ARs3nAOwwZ+j7kvLca5s3flI+qJikjEymUnMKjvN3hz/gpc9rknH3mynOxcUdWEElgzxlhZ5OTkiICQAsOzp07iflgYcnM1o5xmQGAk/vxtP/r2+BJffLqlzDfnl32C8P3XO8R1fvp+FyKlz2PGnqUaD7kMhUbYdfwOth8PQN26rjhx/CqWfjkUixcdwuFDfuJ4cmIaEhPTxbpS3Xo1MWFyF/Tp1xQ7jt7GgQuh8PR0lo8C4eFxMNHJhVVWOvbvuyr2UYBHAWZhDRo6Y/ykTujVpwnoj+WVbw7CS7qOsrs4Iz0Tl3zuYuU3w2CoryP2PWuhwcEIDQmRtxhjmiYvLxeZmUVbyHR1deHk7AJnV1fo6+vLeyvea9/sxbThzdHI017eA8z+dCeC7yegZ8/mqFFD8VlH6beOS5+/O/4Yh6kT/0RMTLLYHx+bIt0YF33tXbrWx4QpndG6jQf+9+NBQN8IdnYW8lHg1q1QDOlSG1uXHEa4HPw9CIsrMjRHR0cLPXs3waQpXXAhIAbn/KPh4eEoHwXu3LkP75ZOGNWngbyHsfLhoFBDFBcUfvfFNuza4SOOU+k5+sAqjq2dGRq3qYNUUwt41XWR9xYEhQ8fRGHblotin5m5IZIeCS6V6Dpjx3fApdg8eNSuKe9VCAh4gIX/6ylvPXuBd+/iXmCAvMUYq0ooKLN3cICHpxcMDAzkvRWnLEFhH+8vEBWZJPYbGOgiI6P42u/1GjjBoKYN7Ou6FxsULvx8U/5wHXqeJ30lO7nbwqyOC1p1aizv4aCQVTzuPq4GaJwL3cmWF10nOCgWsTFJyMnRjG4dxpjmo0ApLS1NY7qTC4sMT0BmevnHCCYlpCInPUveYuzp4KCwCrOwMMLMl3pgz6H3MHBMB9Qo4+xgK2sTzJrTU1xn1rw+SEyUPpwKBYUpKem4dy8CKWn8gcUYqzjUcmZn74BWbdqiddt2MDY2lo9Ufu61bfHhpyOkz8134Vq/oIdGXQ0bOeOr717Ai28Nhu0jPTSMVTTuPtYQxXUfm5sWdKN8+uFGbN18Qay71bLFhMmdMWhwC+jrK3IHbj5w44ljCj+e01XeA3z52RZsWHdWrHt6OWC8dJ1+/ZtBT08xVjA6LhXTP9qB9u3qQ0++dkpyOs6cvYENP4+GiZGe2McYY+pITEjAxfPnxLqOjg6cnJ3FWEIDA0Ox72kqS/dxYQP7foP7oXFivU27OpgofW527Fw3/3EljSns38VT3gO0bvqudMOdJx7XzbuB+Bxv0bKWOLZ8+xUeU8ieOm4prCJMpACxdZva+GXhFGzZ8QZGjmqbHxCqw8BQD1261ceixTOwfstrGDK0VX5ASKwtjODsYpsfEBJ9A13Y2ppBX4+rnDDGykZLW0u0BNatVx+dunRFHa+6zyQgrAhWViYYOKQl1m1+FYv+myG9/nr5AaE6nFysMWZcB2zb/RZ+/HVSfkDI2LPCQWEV8cbbA/H3klkioCvLh5HS628NEIFlm7Z15D2lo8TVpqZG0OXSd4yxMjI1NUO7jp1E66C2zvPJYlBWy1e/jAVfjoZX3fJ1727d+Sb+9/4QuLhay3sYe7Y4KGRqiYxNRWBAuKhqopSdnSPGGVK1E8YYY4xpJg4KmVqUQ1ALD0TNzMhGbGwyMrM4KGSMMcY0FQeFTC1mJvqwtTUXXcZK1FtNiazL023NGGOMseeLg0KmFiMDXZiaGYlk2UrGJoZwd7eHsaH6E1sYY4wxVjlwUMjUkpmVg7TUjCdWT2GMscomLzdX1FYm6Wlp4idj7HEcFDK1xCdlICIiXkwuUUpPzxQ5D9MzC/YxxlhlsWXzJuzYthUP7t/HubNnkSsHiE9LRVReeZiXJxbGniUOClm55ebkSYFhFrceMsYqHZocZ2pmhqHDR+CKry+SkhT1iitSWmoq1qxaKQLP7KwsHDl8SD6inpMnjmPThvW4fesWAgMDERwcLB9h7NngoJCpxd7aWIwfLJwYW1dXG6amhtDV4T8nxljlQhPgHB2dRO1k7x49nsqkuLi4OLRo2Qpdu3vj8CEpICxjnbDMzEyMGDUa4Q8eICoqUt7L2LPD3+JMLfRhSpUHCn+o6hvoiRnJ+oUqnzDGWGVBJfMOHzyAJYv/Q1BQEJYuWSxa5Sqim5c4OjkhMjICZmZmaNiokRTcZchH1FOrVm2EhoSgc5cuiIuNlW6+9eUjjD0bHBQytcQnpUt3sbHIysqW9yi6Z/J47AtjrJLatmUzGjdpiukzZuKVefMx5oVx0NbWLnM376O0tLTg4uKKQ1Lgqaunh1q1PbB29SocP3Y0P7erKhwdHUWgqiW9NmfpevT4ndu3IyE+Xj6DsaeLg0KmFkpQTeMH8/IKPuhSUzKku+8opKQVVDlhjLHKgMb4UQk991q1oKOrGPZCNZbbd+iImOhosV1eNE6RWh7t7e1x/OgR3Ll9G929eyArMwt+16/LZ5Vuz+7d0g13lmgtvHnDH92ka9StVw/bt22Vz2Ds6eKgkKlF5Ck0NSySp5AxxiorarlLS0vFFd/LiImJQWJCAsLDw7F/317RrVwRoiIj0ax5CzRq3AQedTyln41h7+CAVq1bIzo6Sj6rdBkZ6fCqWxcJ0mukMYoUZHp6eUFP+h0Yexb4m52pRVQ0sbMoUtHEyFgfzs42ImBkjLHKZuSo0UiIT8ABKRCkVrfTJ0/AQQraOnXuIp9RPtbW1vD3u47goCAEBgTg1q2bSElOxvVr12BpaSWfVTrqgt67ezdMTEyk6/nhflgYLl44L7qnGXsW+C+NqYXGx4j8WYXGydAHlp6ejpjVxxhjlQ21FppbmMPc3CJ/sbCwrLBZyJZWVmLMIrVGtmnbFjVrOmLd2jVITklGkyZN5LNK16lLF7i5u+PqFV+kSI+lLmnqgh42fIR8BmNPFweFlQRl3E9KTBTrGRkZyJQWdWSkp4uFUPdIeWRlZiLo3j0xeYSy/xe+XmRsKu7di0RmZsFEkyxpPS4uGZnZFTOTjzHGKhLl/qNxf/Xq10ez5s1Ft/G5s2fgc+mSfEb5NWjYUIxTzM7OFi19w0eMRL/+A8SkEXVQl7GrmxvqeHqK19ugUSMR1DL2LHBQWEkcOngQZ6UPqfPnzoouAxrzoioq30RdIjRGhh538cIF+UjZnJDuTmNjYnBw/34xtuX+/fvykeJlZeVI56VKH4YcFDLGKhcK0rS1ddClazfU9vAQAVf9Bg1EPsDbt27KZ5UP9ZxQ4Hlg/z5cungBR48cFp/Hq1euEDfZqrp29Sp2bN+G5KRk3PD3R1RUFLZv3YKL58/LZzD2dHFQWIl07+4NHenDi7LZq4NKNllb22DQ4CG4LN35JieXL2M/dal4SHepNOvt9KmT8l4FSzMDODhYFhlTSN3GlMCau48ZY5WNjo6O+EykBNNKFMTR5yzNSq4IYaGhYuzguAkTMXrsC3B2dsGQocPQpGkz+F6+LJ9VuuvXrmLCpMno0q2bCFrJxMlTcPPmDbHO2NPGQWEl0axFC8TExqJFq1awsbWBibGxyrn/9A0MUNPRUZzv3bOnGC9THqILJCtLjG1p2ao17Ozs5CPSc+npwMjYoMjsY9p2cbHliSaMsUqHbnL79O2H3Tt3YOGvv+B3afnj998QcPcOevTqJZ9VPvQchT+vaRZxRmamSH2TmaV6SyGNz1aW4aN0OZSzkG76qTeIsWeBg8JKgj48aKEPhLr16iMyKhJnTp8SM9hUQR8m69etxbkzZ9Cla1exLzExESeOHRPr6qBrXbp4UXxw7ty+TSRh3SBdmz6kKBchjR/MyeGuYsaYZqCKIy+Mn4CX580XyatfnjsP/QcOQk52wdjo8qAxinFxsVj87z/4Z9Ff0NXVhYWFBU4cPyYmoKiKurjXr1mN3375WXRB0w26n5+fuDln7FngoLCSoELqK5ctFXeztJw7e1akM6CxhqWhZKc0S827R0+Ymppiy+bNYoYw3WXS7Dd1HZaekz7kZr80B6/Mf1UslLpBjHVJzURCfEqRoDA1JV1MPuHk1YyxyujIoUNY+NuvImBTjtemz829e3aL9fKilkLqNh41eozoQh44eIjYP2HiJJiamIh1VVCPz6w5L2Ou9Jk7ddp0mJubo2mzZqhXr558BmNPFweFlcTQYcPh5l4LNja2YixJt+7eIvHpkGHD5DOeLC01VRR8p2Sp1P3s6eWJA/v3y0fVl5SUiEaNGhWZNUcfVvQBhYc5ivGDhVI5UHYadUo5McbYs0I3x6GhISLQGjd+Ag7u31dkfGFFMjUzEz0+SgEBAaLXpbyoF4ixZ4GDwkqCxgUOGDRIzIyj7troKNWz4FOwFh7+QJRWIk2bNYehoaFI1FoW7lJwSq2ClIQ1/MEDUXKJJpxkZmaipp0lXFztoKdfMH5Q30AXtjZm0NdTL/UCY4w9ddINK9U5ptY8YxMTDB4yVAyLoZvpipKakoKzZ04/tty6qd7s5ps3bhR7HUoNRqjEaFpqRv6Ska76eEXGVMFBYSVDJY4o+35ERLgU2BnJe0tWQ0sLo8aMFR96Sp27dhVlkmrVqi3vUV3b9u1Rr34D8QF1+tQpkcuLyiyNHD1GHKfuYh+fu/nLvXsRYrKJrg4HhYyxykVbR0f0wFClEGJuYYE+/fpj08YNYpvk5OTh300++GXFufwl+L4iP+ud22G4fTs0f6FzH0U9JT4XL4qZzoUXCkaJkaEurlwJxLmz/vlLSEg0TI2L5h+8dy9QtGI+eh3pwx1eblZITEiWPpeD8pfk5DTUcbWUH81Y+dWQ/pi5368SoPEtvj4+MDQyhKenF44dO4rsrGx06NgRVtbW2HX8DrYfD0Dduq44cfwqln45FOamBvKjgTTpTvJeYIAok0T/pFd8fUUGf0qJQMHi5gM3cOBCqHTtglqf4eFxMNHJxcdzFBNTlGi22+XLPiK3V8OGDaXnO45U6a66bbt2sLWzx4DZq+Dubi+fDdFqGBQYjm0LX5D3MMZY5ZKSkiKSSivRZy5NxrO1tcXdkDjcCIyRjygYGeiIoC0yVtFKp+RoZ4KWDRzlrQKXfS7BwMBQ5EBUot6beCnIa9qyNeISFMUFlOge3sGm6HhD6o2hMeWUzqbw8J1VK5Zj/MRJ8hZjTw8HhZXE7l07xSQRKmlEd4sdOnYSd4hU95IGLpcUFNI/4fKlS8QMu8iICNGq5+lVFw/uh8He3gGt2rRRKyg8cviQuCY9P7UWtmvfHkZGxjh18gQmTp4qgsJevVrIZ9Nddq507DoHhYwxVgilkqFJf+WtSJKeni6GBDH2tHH3cSVBWe87d+kq8mbRGEEqmURdyUZGpXchU3k8aiHs1buPmCVM4xKbt2iB/gMGIiwsTD5LdVTWjmYyU3oES0tL0dpIJZfs7OxFCT7GGGOloxvriihRxwEhe1Y4KKw0aoiJHf5+foiOjkZcbKwI9qjLozQGBgaIiYkW9ZJpll1crGJmXXRMDPT19cW6OvSkx9AAaer6oJbHyMhIMZCankNfn2twMsYYY1URB4WVRHdvb1y9ckUEdZTvaueO7Vi/dg06duosn/FkNHO5Th1PLF2yWKRfoDEyv/78E7Zs3CDGAaqra7fuoiYoBYXUdX3owH4xpqV1m7aoUYP/ZBhj1c/F0CuIT1dMPmGsquIxhZUIdc3SpJDCrXtURcRGCvJKm2hCqPoJdTcrByjTeJZkaR91AaszppDQgGf606BWSCV6LVbWNjymkDFWreQ9zMPAP0aiT+N+mN9lhryXsaqHm30qiSu+l/HfP39j6X//4uL58/JeYN/ePfJayTauX4e1a1aLa0TIGfupZB6VylMXFYr/568/sXzJYlGmSUnV18IYY1XJgVvHEJf4ANt9tiAzhys3saqLg8JKgkrazZr9EmZKS1R0lOhKVhW1BlK94ukzZ2HcxEnYv28vEuLj5aPq873sg2nStWa+NEe0NlI9ZcYYq65WXVgnfqamxWGH3z6xzlhVxEFhJUHdxjQekBJR9+3XHzf8/XAvMFA+WjJt6TEUvBEqsTRoyFBs37a1zBn7KcCkXIWku3cPUS3lhr+/2GaMserEL+IWbof6ylvA2gvr5TXGqh4OCiuJVq3bYNmSxWKdgrJhI0aKHIWq1Og0kgJBqrl56MABsU1jCPv07YddO3eIbXW1bdcey5YuyQ80Bw0eIrqU79+/L7YZY6y6WH6haN3hsKg7OBt0Sd5irGrhiSaVSHZW1mM5ragb2EIK8lSZaPLo43Oys5GekSGSYtNEk/3nQ1GnjpN8FIgIj4OpXl6xE02Key3x0msxN7cQE0286hZMWKGJJoEB4djz9wR5D2OMab7olBgM+X0o8vIUN8hKLbw644+R38lbjFUd3FJYiRSX5JQCQmJmrIeQkBicOe2HjMwc6Oo+Xmf40cfr6OqKgJBQOaXg4CgcOeybv/j5B8PRTnH8UcW9FmqB1NKqgakjmsPDwSh/qetsitljW8lnMcZY1bDy0ubHAkLic/skguPVLwzAWGXHLYUaJCouFfSvZaivAzMT9ZNSM8YYU01uXi56/zoQqWnFT9ob2nYc/tdjnrzFWNXAQSFjjDFWjPPBPniQFImvd3wq7wGc7OrgVe9XUNPMHnVsasl7GasaOChkZXLzyGGkJyfKW0CzgUPEzGnGGKtKKCgc/vsQeQuo79YSS8YvlLcYq1r4W5yVyZ6vv8CGV+flLzlZnNCVMcYY02QcFDLGGGOMMQ4KGWOMMcYYB4WMMcYYY0zCQSFTy9G//8TKOTORFhcLHX39/GXtq69g9byXkZ2RLp/JGGOMMU3CQSFTS25mJvz37kFqbCxypHXlcmP/PkTfvQ1dA0P5TMYYY4xpEg4KmVrajZ8IHb3iE2d3njlbXmOMMcaYpuGgkKnF2MoaTYYMlbcKmDnUFLkK1ZWTk4NcaVEF1WN+mJcnb6kuS3pcnoqPy8rMlNcYY4yx6oWTVzO1Rdy6iV/79ZK3FPq8+z66zlCvpXDvnt2IjYlBbm4unJ1d4N2zJ9asWikCRS05Efao0WNEDedtWzaL/UlJSejXfwAcnZzE8ZJQgLdxw3roSo9PTExEx06dUb9BA/z8w/ewtbMT51hYWGLAoEFISU7G5k0bYWJiIp5j7AvjYGDIXeGMVXecvJpVJ9xSyNTmULceanfsKG8B+lIg1faFCfKWalJTU1FD+m/8xEmYOHkK/K5fE8Eh7X9h/ASxnxY9fX34+/nB0tIKo8aMxYhRo1WunPLgwQPUq19fPG6k9LizZ06LwNLE1DT/+hQQkuPHj6FT5y4YPnIUevXug+zsbLGfMcYYqy44KGRl0nHqDHkNaD1uPAykwFAdxsbG6NOvn1inQJBa5bS1tUXQ5nvZBwf270NwUJA4HhIcLFrwdu/aiatXfGFjbS32l8a9Vi20aNlKrMfExMDGxhYZGRnAw4c4IQWBRw4dQlxsrDgeFhoqupl3bt+OqKgomJqZif2MMcZYdcFBISuTet29YeXuDi1dXXScMl3eq77EhARs2bQRgwYrumfq1PGElZU1GjduggP79uLB/fvIzMxAdHQ0vHv0hJ6uHg4dPCjOVRUFl9RK2LN3b9SoUQMurm7iedyk10/d1RQMZqSni4CxZ69eCAwIEK2TjDHGWHXCQSErEwquus6ZixYjRsHcwUHeq57IyEhs3bIZAwYNhkPNmmIfBW61PTzEdiMpMAwNCRGtiHU8PWFgYIDGTZrgwYP74lxVXL92FRfOn8PoMWNhKF1H2UJZ09FRPA+NLaRxjfrStevXry+eq0HDhmo9B2PVGb1H7965Ixa6oVLKyc7Ob+1Xio+PF639QffuyXsYY5UJB4WszFqPHI3hX34jb6mHWud2bNuKQUOGikAtk/IdSl8iSxf/h5SUFNGNHBBwVwSHnp5e8Pe7LmYeBwYGwN5etSA0IiICl318MFAKOmk2FT1npLRv4/p1YsYzTS6JiY6GlZWVeA6/69fF4xTPYS/WGWMl27lju7ixokU5HCM6KgqbNm7A9q1bxDYJf/AAmzasF5PILvtcwsnjx+Uj6qFAc9mSxVi1Yrm4Hn1WXL1yBYv//UfsoyXg7l1x7sXz57Fi2VLxuaLcxxh7Mp59zJ4LCsaOHD4kbynQrGLqJr544bxIIVO3Xj00a95CHLtw7pwI1mhsYY+evVSaGXzD31+0FCpRS+HAwUNw6eIF3Ll9W4xhbNuuPVzd3MTEksOHDiI+Lg5Ozs5i0gm1hjLGSrboj4WYNedleUuBAkBra2v8s+gvvDxvvthHN2Q0SczOzk68//fv24txEyaKY+rYvHEjevXuLcb90hhgTy8v6XMjSmQSaNS4sXwWxHt5184dmDBpMtLT0nDv3j3RC6Aunn3MqhMOCpnaUtOzERmbIm8paEsf9m6O5vIWY6y6+OG7b+Em3VilSYEXDcmgGyqlhb/+kh8UFrZvzx7RC9C0WTN5T9msX7tGPJ+/vx8MDQyhpa0lBaM28KpbV7RGJiclQ1dPV2Q6aNaihRiCoi4OCll1wkEhU9s7PxyE391ImJsWtNbFJaTh45e7ol1TF3mPajYfvIH/NvjAyEhX3lO8tLRsfP6qN5rXV4w9VMdf6y/Bxz8cujolj5ag4wvmesPUWE/ewxgrCX193AsMFDP9qV19xfJloiWfWtvJo0EhpZ3au3s3zC3MiwSP6qLnPXbkiPjZvUcP0btAw05q1aot1imP6cO8h7h9+xb69h+AyIhwMXmM0l2pi54jLbugpruOljb0dYqv6sSYpuMxhUxtWTm5aNrUAy1b18tfXJytRQuiuu4ExcK9tgNatKxb4uLgYIHgB4nyo9Rz+EwgTM3NYGVnU+ISGBqPyNhk+VGMsdJQkGdpZSXGCVLXsK2tnQjOikNjgrds2oRatWuXKyDMk55z6+bNMDYxFgEhadW6Dbp19xYZBbp79xDDQ/T19cUENQcHBzRt1lx0WZcFDSMx1jPKXzggZFUZB4Xs+ZI+cPX1dKUP8JIXPWkpK319HVhampS6mJmq37XEWHVGE7bWrlopJmldv3YNIcFBIjCj3KJXfH2RmZUlfionfVF6KRq/S/tu3bwpX0U9lJKKuqlbt2kr76F9B0SuURIWFirGM7rVqiVmOVMwmpCQUKauY8aqGw4KGWOMlQmlcqKKRJkZGWJ2/wRpnYIval2j1kOqDiRaEaXtmk5OaNK0mdhWLmURExMtJpApZxpTt3CzZs1x6uQJrF29SqTF6d6jJ2xsbNCwUSOskfbt2bVTTDJjjJWMxxQytb32zT4YmZtLd+MFVT9u3gjGmN510aNdbXmPar757xQik6j2sY28p3h37oShT1tXDO1RT96jurFvbISbe03YO1giOzsHsbFJYr+NjTl0dLSRkpyOlNR0BN0Lx5eveqOOq2oVUxirbvJonF5QDBUFKlWedJKWCjP4XWqaw8SIx/EyVhlwUMjUpmlB4ZCX14ju5/btGyAlJR2XLt0R+9u0rgtDI33cC4pASHCU6Gb68X99OChk7An2nQrAz8vOwNO95PdIQEgcdLS1YGZWcuqo+PhUtG3mgg9nqzfG8LdVF7D72C3o62nLe4qXmZWLX9/vB0839d7TX/x9XPod4qEt/Q4lsTI3xDev95S3GNN8HBQytWlaUDj0lTWws7dEvXqu8p7i+Vy6hU/mdOGgkLEn2Hb4FkLCEzF3fBt5T/EoeFyy+TLatGsg7yleZEQ89JCFBXO7y3tU88Z3+6GtbyRa+0ty40YQXhzSBJ1bucl7VDNg9io0bVK7xLHM9NV5/vwt7Plb/RnNjFVWPKaQVXmmJgZwdbGTt54sPSMbd0Pj5S3GWGVFYxRp6IeObsmLtnROWRhIwaCZmVGpC6e3Z1UNB4WMybIycxAUliBvMcYYY9ULB4WsyktNy0JEZOktgFraNWDMA94ZY4xVUxwUsiovNzcP6elZ8taTUTdz+6ZO8hZjjDFWvXBQyKo8XV1tmEgBH2OMMcaejINCVuUZGujCtpRZiiQxKR1HzgXJW4wxxlj1wkEhq/Ko+zgrK0feKsFD6dw8ztDEGGOseuKgkFV5NNHk/oNYeevJDA110cCj5HyJjDHGWFXFQSF7amhyR3Z2rrxV8XJycpEmBXwVRU9PB452pvIWY5VDTo4KrdxVCH1mqDIxrKyo1yAzM1veYowVxkEhe2p+/XEPBvT6Cv/+fRhJieny3oqzb88V9Oy6AN9+uR1hYXHy3sdRmhknx9KrlGRLQWZMQpq8xVjl4H/9Gs6ePoUH9+8jLy9P3lt1bd54Dr26fo4fvt2J8AcVnzd02ZJj6N39C/z2815ERynqoDPGFLQ/kcjrjKmESljpGhjAyEhf3gPExCSikYcNzA11ERYai9jYFBw/egN+18Nw4VwA1q0+hSjpA9jd3Rbm5kbyo4BTl0ORmvlQVAcoSVxcEuo4m8PB0hAhIYrr+/oE4dyZu7h+LVS6/mncuRUOOwfpnJoW8qMUth6+BXt7K+jq6ch7infn9n2YmRigVSNHeU/Fy87OQlpaGrKysnjhRaUlNjpauqlKREx0FB6EhYnA0MTEBNraZavWoY7c3FxoaRW0Hdy6F4vElEy0bVJy6qaA0Hj43oiAk7OtvKd4qSkZ0EYumnnaIrTQ+5o+M65eCcFa6X0dcDcKNR3NYWdfMFls/+lAaOvqwci45KwC0dEJaOZlB2NdbXHjSNena1++FITL0vOska5Pz+vsbAVrm4JegvV7/eDkZFNqRZR7gREYP6iJvMUqo8jIRGxcfw4H919DYGAUXFxtYGhYej5aKmN48MB1bNt8ERcvBIpa3o5OlvLRkvlcuoejR/zFd5NyuXM7Arq6OrCyNpHPKhm1Zm9Yd1Z6D1kV+3ovng8Q13SvVfQ9Ri3t69eeQc2altL7o+A7WlVc+5ipraTax3d9AvHXwgNiHxWTp0kehVF5qq7dG2DilM5o0bKW2rWPMyLj8M0X2+S9xWvUxAUTJ3dBj16NxGsY/doGuLjZiw/5khw57IsB3bwwe0wreU/FCwsNwa0bN+Qtxkqnq6srfdAX7e6kQK2moxNc3dykD35jeW/5paWmYvu2rdINnzH69u+PE8eOSe+jXvLRp1f72MNYC7/8sFveW7xmzd2kz40u6ObdAG//eAh6RiawsS05q4C/fxAmD2gI35M3sPifI/Le4rVu64FJ0vU7dq6Lka9uQOvWdUutfXzo4GXs5trHldY9KQicPG4huno3hKeXA06fvCX2rd/8GswtSm6I+N9ba+DvF4phI9ogJTkDq1ecxOvvDMSo0e3kM57s+292YP/eq+JvSSkxIU08/5hxHfDamwPkvU8WF5eCHp0XYNX6uWjQ0FneW+DLz7YgIiIBv/4xVd6jkJaaiY5tPsKSlS9J7xl3ea/quPuYPVP0QXr0sB+mTfoLk6Q3a7Yqs4LVdP1qKN55YxUG9/sWIcExyJSeIyEhVT76ZGZmBujWRr3C+Yw9D9RaeD8sFGdOnYT/9evy3vKLi4tD8xYtpcDLG0cOHcJDmpJfSfheDsYb81dgyIDvkZGSIe+tONSCOPelJRg55EfkPoXPpapg3pwleOu1Vbh6JVjeUzpqzdqzyxc+FwPF539h9PlMx6hVjYIZpbDQODy4H4+kpHTRwnfkkF/+8Rv+9xETnSzWlWgYwM0bD+StAps3nke7Dl5Y8OVoEfD/9ueLyMnJw7GjN0TPlb9fmHymQnBQjAgaqVX5+BE//P3fTEyd1g1zX+2LqTO6Y+Pas/KZpatV2w4ffzYyf/nx10n4+fcpWL7kOO5Lv5sSDa06fPC6CCLpNT1vHBSy54LuymfO7lFql25Z1faww7RZ3qhZ0wJaWjVEAuvSiCL72vyWYJqB/l7tHWrCxdVV3lN+jo6OiIyMkG6QzNCwUSNkZlR88FUe1NozY1YP6D2lcpQNGzljhvS5pKXC50VVRYEb3XQUt0RGJEpB2lVMHvcHpoz/QwRstP9JaFzo/JeX4Py5u/hywVa8Mntx/vm//LgHs6b9jWtXQ7Bnpy8G9P4at2+Fi2Orlp/At19tx6uvLBVDhP78fT8mvvC76HlauewEfn6kVZmeh4YQPeqNtwfi2x/Hy1vUe1VD9B7p6WmjhrQ9Z+Z/ovWOUEA2cexv4nek4QSnL35eZCgSTURU5XukJHXrK4YmxcYogr9zZ+5gYN9vcOSwv+gOHj3sJxEkP0/cfcwe43PxIgIDA1G/QQNYWVkhPj4eDRo2lI+W3H2cm5CCvbsVf9R3boeLOz4lHR0t9O3fDBMmd0HdejXFPnW7j22k74LNG86LfQ/ux+HWTcWHiFLb9nVEF1PHTgXN9hP/t0V6PupmK3n80cmT1zB1WDMM6lbw2IoWGxMjWngYU1VqSooYh6qko6MDJ2dnOLu6wcDg6VfqOXn8ODp16SLWn1b3sXcDO+zYdknsCw2Jwd07kWJdibrhJk7uLL2/PcX2m98fUKv7OCk8FocOKFpU792LQlBgtFgnFFxTl/QE6fo0pIWMmL++2nYfv/rKMhw74i9vFWUoBePpj2R8cHKxwviJnTBkWGsYFQrW6bOZgqxd+/8HWzszkSligrT94SfDYWJiiLEjfsb2ve/ASR6nt+CTzYgIj8fCRdPw3dc7sHfXZWzd/TZMTQ3EWNCeXRZg9YZ5iI9Lwduvr8Lhkx+JQI2u26PzZ9LjXkSLVrXFtR5Ff0/3AiOl76YrSE5Ox29/ToW+9G97QApqf/5+FzZuex0f/G+ddJNljrffHSw/CsjIyBaBW1BQNNauOiW99hHoUOi75Umo+5haSBf9N0Peoxjr98dv+7Fl03nsPfSe9N7VFYEwfV+NHddBnEO9aB9/sAEHj30oXufz6D7moJA95vDBg/Du2ROnTpyAgaEBDA2NVA4Ke7QreFN++tFGbN10AaZmhhg1pp0YS2EnfTgUpm5QOLRHPXmPomtgwceboCPdvfWTgk16c1FLwqNUDQqfxZhCxtR19fJlREdHSe9FQ7hKgWBNJycRGD4NMdJNy7Ytm+UtBepSppvDdu074G6U7lMJChfM7S7vAVavPInvvtohvvAHDG6BCZM6i5b/wtQNCju3KhgWQmOeF/1xUOQlHSwFMhTQuLgWzU7AQaHqQaESfc5PmtoF02d6i+1VK05i2+YLWL/lNbFdGP0b0809BWNKB/ZdxWfSd8aJc5+JoDAyPAHf/zJRPgq0afYe/vxnOpq1cEffHl/ivQ+HoXuPhtiz8zIW/r4fO6UA80no+agFLjYmGSPHtMdk6XVSiyH58N11YnIkdVVT0EnBohJ1U7/9xkrRiujhYS/GAj46saM4FBSuX3OmyLhFmlTl6mYjXneTZm5ighMNcfrym7Gwkic5ZUpB6PyXl2LNxvmwszfjMYWscvCoU0e6s7qDDh07IipS+jIqY2tE6zYeePu9weKuiMZkPBoQlhe1Nr44ozv2HHgXn305utiAkCRLb8bgkCh568l09bQ5TyGrdCylgKxx06bo0KkzXNzcnlpASCykmz1nFxfRJT1+4iRMfXEa3N3dxc/CN4ZPE335UhfunkPv4qNPRzwWEJZXvfqOeHl+H+lz6X387/0hjwWErGxsbU3h6FgwOzdF+tx90izf5OSMx2bGUsBZOO8s3ew/igJxCuaox4nG4BFq/Rs0uKVYf5JxEzphxZpXsGbDfGzfelEErEoDh7QU41V79GpcJCAkNtLvtHj5SyLgpEBu9vR/Hps8+SQ0FGH56lfE8utCReA297V+4jpE+bvS698gBZC0bN9yET16NpLe4yp0U9eo8dgYTZIn76NhU2XBQSF7jJv0JUCB4LGjR8VA84C7d3HD37/EsSPF6T+wOV4Y3xFZWWmiC4xQ92lFadjIRQSb9MZNTU1FQrxi8C61bDws9FrpPZKnQvk6I+kDjCuasMqGAkE7ewfRzfm06ejqok/ffvD09MK6Navx4MED8bxa2trP5PkJdRHPmdsbVlaqpe5QVzfvhqI1y8zcUN7DCqPUPy5u1sUuusUEKzQr/OffJ4tWP/rMV6LUK7Fxis99JWodS03NhIWlMeLji07+S4hPK5IWqCQDBrXA8aP+YoLJmdO3RWBXHBrKVHhSDLXc0RABmoxIqHv4ywVbRLC2bs1p0eVLaMLJurVnxLpSd+nvhsYbxsQUneTyJNTKXNPRQiz1Gzph5pxe+PyTTeL3J/S9RV57a4BoES281PG0F8dKYmVlXGTCilJggGLohZ1d6fX+i8NBIXvMZR8fnDp5QvqjtUHduvVEq0FYaCi2bNokn6E6Ggt16MABHDl8CJGRkdId2WX5SMXau3s3zp87h1s3b0pv+KtFqkAY6OvA2rr0Dxu668pR8S6QsaqsVu3aGPvCOFzxvYzw8KLjdp8VStadman4Ao2KKr2lX130e6WnK5LqP43ra6r3PhyK7bvfLnYpPPGiS7f6ootyyco5Is3YozcN7dt7IeJBAi5dCBTb1AVL4wivXw1Bp871EC4FNL6Xg8Qx+uzds+syunStL7ZLQ629NR0t8cN3u9CkqWv+uMRHnT8XgK8/35YfiNHYRJr0UkfuVaIJK551HPDi9G6YPqsH3nt7jciIQa2BXy/YKnLtKu3fe0UEYtZSsEs5BCmH5qOzoEsyYVInMZby5+8Vk2ToOo0au4hchEoUwL7zxupiWwAfNXBwSxFkr1x+Ir/Bhv4fU9c7jcF9NF+vqjgoZI+5fesmRo0eI/3BNhFdyfXq10evPn3EH2qW/CGtqlwpOLOytsKAgYNw8fw5pKSo/iZSB419pHxq9EUSEVH0S4zGJpmZlpyTiiQlZeDoedVTLTBWFdH7PPzBA9ySPgeoK7lHz17Iy3165SqLc/vWLdy8eUPc7GVIgdu1K1fkIxWDbnKv+vriwL69SElOrvDrV1WUSJla5ahV8JeFU0ocs+bsYoX/SQHma3OXYfzo38TM2qEj2oiWYAri3vtoGF6fuxyzpv2DYYN+EBMxXpnfR3506foPaoF9u30xaNiTx4DPe7WvaBHu3e1zjBj8Awb3/QZ1pCCQxqmeOXVbtCS+K71GMn5iR9GF/fuv+8SQBXrtFCQO7v8t+vX8Eps2nMPnX48VXbsUZFK+3PthpdfUV6LH0SQbqthz4XyA2EfDnmgiy6ihP2Ha5L/w6svL0K17/SIBNv2/a97wnfylVZN3xX76//ur9G+wZuUpdOvwKfr3+kpMXHF0tMKX374gzikLnmjCHrNz+3Yx85gCQiWqqLBp4wZMnvoi3vjugEoTTZTu3L4NTy8vZGRkiJaHtu3ay0fKN9GkMPqQt7a2hr6+Ps6ePSOeQ1nx4YU3N0lvcidY25Q8ppEnmrDqjoK/tWtWw8DAUHq/WEOrhhYSEhJEmpoxL4zD4QsPnvpEE0LDVej96+zsjMOHDko3dvro3bevfLR8E01I0L174vdqIH3O7du7R/rC1kW/AQUJhavzRJOKRgEUlSu0tjGBpWXRROtU4/p+WDxMzQxgX6hiDdWnpiE/NENXia5D28oJItSaR4+nGc+Fq+4Uh7qZExKoe9okf1gCtfZR9FP4OaiVkIJT5XhHeh0hwbHS34cWXN2k94P8PPRv/82X2zFydLtiu3rpcfT6ihtTSRNBtKXrFR6/SC1+9BhXV+v8NG30HMoWzsIoYDR+ZDwmdSPTdamr2sSkfBkJuKWQPca7Rw8pePPFwl9/wR+//yZ+btm8Cb169yn1zVccGuu3+N9/cO3qFelNl41ff/oRS/77FynyOMOKQNei8U/UHRQYEIA/fvtVPEdsbCzSpA+OiMjHx148ij5cmtUrfSwHY1VVqHRz5eLiiuEjR6Jrt+7o3LUrBg0ZIn0m9BQta89KvXr1pECQytgZiwk2VLmlIrnXqgVz6cZWT7qJ7Ny5C5ycSy7bx8qOAhgKnB4NCAkFTXSscEBIqHencLBG6DrKgJDQOgVAqnwnUUocmohYeJwqBWWPPgcFZIUnwNDroNdHM44LPw8FrDSbuLZH8TOR6XFPmmRD1390QgtNdvKoY18kby8Ff/T7Pbo8GhASanml34+OlxcHhewx9EFMXwovz5uPl+a8jCnTpqNnr96iK0ldyUlJCA4OEt3RlO8wIzMD8157XXzJXLygyDdYXjSp5PSpkyJ3G40rbN2mLea++hr6DxiIo4cPy2eVjhKT2liW3s3MWFVFM5tT0x6v/kNjg5/mrOdH0Rgpuon8Z9FfCLx7VwxhIRfOnxOtfBWBusj/XPg71qxZjVMnT+JP6QaY0nAxVhoKSBd8NaZMjSSVHQeF7DH+fn6ixBUtR48ckX4exKGDB6R11QMspZTUVDg7u8DUzEy0QNjaKu6sHBwcQDOGKwKNf6DZ0rTkPcxDTUdF1nhrGxvk5GRLd0/6cHUpPbcUzUQLDCu9RZGxqopurPJy8/Dv34uweeMGMbls6eL/RIDWrHnBzNKnzd/fX3rfmmLCpMlITErEiePHxH6aQJZbAeMbg4OCpJvUOMya/RJeevkVscx6aQ6Sk5PFcBfGqisOCtljaMYfDfKm2cc089heCuDMzS1EUKcuCgJv3PDH8WNH4XPpomJ28LVrYhyPawWV56K7NfoyW792jRiHtGPbVtFyuHrlCjRu0hRaNRSljUqTmZmDwNAEeYux6qn/wIGYKAVjlKy6Tdu2GDl6jBhP+CxbCtPT0sRnj6GhoZjokpSYBL8KrPGclJQkuqQp1Y4Srdf28EBiIn8GsOqLg0L2mOYtWmD4iJFiXCEFiBQM0gziwhNPVEVfJMNHjhK1VAcOHgJv6QOeBq1TLkQK2CoKjX/q5t0DJsYm4sNeT1cPAwcNFgl3qQUwNrb0QuNa2jVgbFh0rAdj1ZG+gQEcnZzEzZaJiYkYp3vx4gX56NNHnzXUQxEtp4rp178/bt64UWGBIaXcOXf2LM6eOS1uVGm287kzZ8TNK+VoZKy64tnH7Imom+bEsWO4fz9MBFqdu3QV+1Utc6eUmJCAe/cC4ebmLrKw07ggaytrtGjVCt8uPl0hs48pbcUt6YPdzs4OlpaWOHP6NHT1dNG2bTuMfG0TzC1M0KyZB5KT05CQkCoFq9qoWdMK6WmZiJEDxuioOHwypwvqcIUDVk3RkA7K8/momJho2NjaIiLNCgfOBGDykJJv6A6fvYdzV++jXv2SewOiohJgb6GPL+YrSqMVFhMdDV1dXem9q8i3Rl9V/n7XpUDVBZ/9fQ4PotOk93rJCa6Dg6Pw7sxO6Nzy8Ykq9Lve9PdXJLuX/qNSfvUbNISxsTGGzV0LbekzQq+Yqhr5pG/O+MQ07OHZx6wK4aCQlYoGZBPlWD11gsKc7Gz8+8/fIsVNaEiIGPdH63du34F7LXfs80mvkKBwxbKlcHR0Eq2QNGvRo46nFPzFi9nOf+5KkJ6rJlxcbKUAN0Z8UdDsr5YtPaUvuyTcvh0mrmGgr81BIavWaBb/siWL0bZdO3mPQnRUtOgtsHWuh0XrLkKnlOEYGVk5SMvMhpFB8TMwlShtx4AunujVwUPeU4ASStNYRrqplL6qxHCWps2ai1nDd0NiceWmonJDSWjYSL/OdaBfaFanUlxsLK5euSIFhYpcc1bSjWqTpk2l39MaickZiE/KEPtLYmaiDyuujMKqEA4Kmcq2bt6EocNHqBUUUtUAuhvv3qOHqKd8LzBQJMJOTEzEyRPHcT3SqtxBIbVobly/Tox7orFCNKaQ6raSNatWYvc1Y9St5wYj45Kn6/tcusVBIav2fC5dEmP56OZNid67sbExRXKMPk1RkZHYvWuneD4KAulrip6fsgtQpRUT09IrFJWEAk3Ku9qmbTvRQkioxfD8ubMYMmy4yHnK2KPWrluL7KwsTJS/X6oiHlPIHkPl6Kje8aNLTBnqFpuamODBg/ti1mDNmjXRqHFjsT8sNEQ6Vr4PdiWaXEIpM2ihrp/2HTqK/fTFQq2GjDHVtWjZskhASCivX/MWxdeXVVVmTibmbX4XWbnZ8p4no7QzXbp2E69DObaxSdNmIogLClKURiuP4OBg0RpKn0d0fVponZ4zMOCufBZjRZ2hcafHj8tbVRMHhewxvpd9cO7sGVHmqvBCMwLVRXf0lGPsgnSHbywFiNQFTaXoLpw/j1atW8tnlR+Ndzx29IgIEGkGIZXj27xpY/44SMZY2dGEsfLeYG25thvnbx7BDr998p4noy5cv+vXRBUkpdSUFNzw94ONTcm9CqqglkCqmkI3kkqU+J4yI9jYlJ6+qrqhXJEBd++oXeZUiVp6C9ejL6ykY0oVkYYoKytLXitedjZVOHm845T2qfP8lGPzSecXd60nPa9SRfzu6uCgkD2G7pYpuOrTt59IAK1c6IOa5OTmITklXUzaUC6pqU8ef9OyVWu076hovSN0V05dQOIDWXoz0Di/e0GRJS4R4SXnD6zj6Yl+/QvKVFGlAspBpshrlofr1+/h2tWAEpfYuFToPsO0G4xVJ2svrBc/11xYJ36WhN7PdAO5cvky/P7rL2LZsH6dyFjgULOmfFbZUcujV926WLt6Vf71aagJjXOmmcmsKBqfHRQYiJPHj+GG33WVq1FRwDNv/jzpM7+m9O/pgN59eiMkNEQco4k+06a9CFc3F9St54UWLZvjiJwLl67vXssNy5YtRcNGDaV/c3vpe6QF/Pz8sHfvXjRt1kRcW+n+/fvSv5s7goIeT2z+3fffiWvVq19X/Pzq66/kI8DEiRPw66+/YvCQwdLfnAfs7G3xxx8L5aPAP//8DWcXJzRo2ADDRwwTxRiehIYfjBk7Wvyu9HonTBgv8l6SUaNH4seffoSXlyemTJks9u3cuRPNmjdFgwb1xf+Dl+a8JLJ9kNkvzcYnn3yMgYMGitds72CHhQsLXtfTxGMKWbHorkpHCgwL5/Gi8YHUBbx8+1XsO3mnyODtrOxcLJjnjVpOipmCpaHWQkoF4Vi7CY6cV3xIlITqgw/vWR+2VqpXHKFJLjRuqGuvwXgQpXhzlsRQXwf1n1C2iDFWdicCz+GttfPlLeCX8X+grVsLeUt1NISFJqtRmpyngUpyUnkx5Yzn6iAkKEgM8SkJfR/QWLrCrKxt4OruBmvp55N8+dWX2L17F3bv2iP+zWbNmokH0vfIrp27RBBE3fibN20W/6bLpRuAN996E3du3xWt0lbWlujduzfWrF4rtl98cSrCwsKkoHAfanvUwu+/LcTQoUPF81Bgt3HTBhw/VrQizbVr19C+QzucP3dB1Lm+KX3nUHB55vRZNGnSBEOGDpb23cLOHTvhKd2IUBD62uuvITIiSrw2Ctr27duPjh06ioTq3b27YfCgwVKw+K/8DAUmTZooWgmXLFkqGiMGSQFds+bN8P13P6Bvv76ihOSypctQp04dMbmpRcsW4nf39u4hxsLTtYcOGYoPP/xIBJQHDx3Evr370bRpU+zZswcjRg7HFd+r4nU+TRwUsqeKWgNp4sejqFvI1dVNTECpCFs2bXyse4D+tOkDniagKGVId6AJhT4ATaysYMLdRYw9VTPXvYqrAWflLaClVxcsHPmtvKW6M6dPwc7Ovkw5U1Xhe/mySFfVqHETeU/Vd+f2LREYloR6jp7UjUnDgtzca+VnpyiMArCZM2ZKweBssU2taTSr3MvLS7So/fP3v1LwNEgco4CKWsT++3cxevXqJYLCDes3YuDAgeL4sWNH0a9/P8TGxOHTTz/B7Tu3paBqizjWpWtnTJk8RQocp4ntwuh10+un7xxqXWzeohm++uprjBo5SgSFHh518OMPP4pzKXUatQoGB4Vgm/S99dvvv+HqlWviGKEWPwtzi8eCQrquja01dmzfgS7ykCVqvczOzoK79P+GgkL6nX/95VdxjILYVatX4tzZglKv1JK4du0aEcBSUJidk411axWt64RaGd955x1MmzZd3vN0cPcxe6oM9PVFk3jHTp1FvWPl0qp1G/mMilJDpKso/Bzduj+e++z28WP4tW/P/OXEf3/LRxhjT0NAbHCRgJBcun0CIQlPbp2iiSarVix/bLl86ZJ8RvlQmq3irk/JrJl6aKx5clKivFUUBUb29g7yFqX9sUK9evVEyxhloHBycpKPSMGIlpYI+CMiwuU9KFL1io7RjT7V0KfAaP/+/aL3imrrU7fyqFGj5TMLUBc1tUhSy2KHju3Rp29vEZRSAKqknH1OlD1jdJyubS89Z2EODsUPXaAWbGqUKPy70u9GAaFS4d81JDS4yDahXjia5Knk5lY0t6advR1ipaD6aeOgkD1V9Cbr26+/GJNia2eXv1AiXCMj1buCS9O3Xz9Ry7Twc1CJPVPTgrQ5jLFnb3mxYwgfYoU8xrA49EVNAYAYzzxwUP5S75FZ0WVlYWEhWpD69h9Q5PpNmzaTz2CloS7d2h510KlLV3jVqy/vLYpSG6WmPV7jXl9fX/xMz0gXP5UyMzPEY5QK9/4ox9tRVzN1oXZo30GkiNmwcSOGDR0mfdY/ns3ip59/EpV4Lvv4wufSZZw+dUbliUq60u+XmVV0Yk3aE+r1K19zSfX8qddKyUDfAOnpRcfhZ2ZkSL9bwe+emVm054t+f+X/t6eJg0L21NnZ2z/WHWMv7WvbvuJynhlKAaYyFY2Sto6O9EGv6HpgjD17CRlJOHxtt7xV1P4rO5GSWfyXqJm5OVq3aSu+CKlCkXKhL/SK+GKkzwvKTEAzmgtfnybTFf5irg4o0X836lkpYTEzM5fPVnQX12/YEB2l/3+1PDxE8PQkrVq1wokTBeP8aHIFdQFTEEVj+gofCw4JFi2LnTp1kvcA586dk9cAX9/LomKVsmXvxWnTsGHDeqxZsxqTJismbzwqJCQELVu2ErkuCV2PWgBVGTXXRPrOojGINCud0E3E6TNnxPqj6CbDQ/p/ceJkwe9DXcSvzH1F3iqKKm35+FwqMvv91OnT6Fzkdy9oXaeJN3fv3kX9esUXb6hIHBQyxhh7Ki6GXIG1eU2Ym9pDV9cwf7Ews4elmR1uRQXIZz6urvQF+OhMY8pV6OziIm+VD80ypvKdhdFz0szn6oS6bWnMXUkLlQylgLlZi5ZoJ918Ozo5i8eV5v33PsCmTRsx/9X5+OLLL/DSnNkYJN+oL/hsAX766Uex/6+//sTIkSMwadJk1KpVMPt769Yt+Obbb/Dbb7/ho48/wvz5r8pHIFoHaTJIRkYmunTuIu8tioIsGhv48y8/4/MvPscPP36PTh07iddEAV9JvL29RXqikaNG4vfff5d+jpC2rZ8YUH6+4At8/vkCfPTRh/jgg/ex4PPPMFgeL/mofv36iVbpYcOH4b///sU777yNXbt24tVXX5PPUAShU6dOweLF/2HM2DFiggpNSnnaeKIJqxYSIyNxaeM6hEsfBH67dsh7ATfpTrZO565o1Lc/7LkQPmNPxZLza7Do4C/yFvBKnzcxoeVIeYtVZaFhoVIQtkl0rXbr1k3M5FW6ffs2dkrBELXGUQDXWQruqJuVtmmiCXX3Xve7LoK/5s2aY8CAgrRjZMDAAejSpQveefsdec/jtm/fjqvXrsLN1RWjR48B1fLfvXsPevbsKWZd0+xpmuFL6DVSwEjjE6k1k8YvUktkQmIi+vbpKwLhpOSkJwah169fx67du8TvMHDAQDHjmRw4sB81azqiUaNGYpvQ5JStUsBKWTioBXT4cAo6FV3bNNHERbr5GTZsuJiFbGFujvHjJ+S3eD5NHBSyaiEmKAg/9pDeyE/4cx/3599o1KefvPVs0FuPPvwMDQxQQ4W77qeFXoO+nl6R9EOMVSQOCpk6lEHhhfMXiwRShZ0/fx6DBg+E33V/lccJagoKCp2dnfH119/Ie54d7j5m1YKNuzvq9ewlbxVl7uiEBj17y1vl8+fC3/NnMm5Yt1bso/xe+/buEQlylWKio7H433+wf+9e/Pv3IkSEF8y4K69FfyzMfw3rpLtcQnel+/ftxW+//Cy2Cd0VL1uyGHt37xavherbMsZYZUazlimp88BBA/DTTz9XuYDweeOgkFUbnafPkteKajd5coW1klH3wviJk8QyasxYse+OFGw1atS4yOwzGgDdq3cfDB0+XMzeo0HUFUZ6HuVrUOZopICvQYOGRcYBUQJxGsw/bMQIDBwyVLorLxjUzQpQmohrV6/KWwpUgo0CeiqLphQcFIQD+/bh1IkTyEgvOqvyzu3bIg3Ks0A3IfRcyoW+RJVohiMlaC6MUnRQbfOylLFk7GmgyUQHDhxE7WKqy1AS7A8++EDMKB5XKAdtVUIJrGfPVuR2fNY4KGTVRq3WbeDURDF2REnX0BBtxoyXt8qPvpBPHj8uWuUo6CINGjYUZbUKa9GyZf4g96ioSNjZ2on1ikCtghSY0Gu4HxYm9tVv0OCxAfqeXl7itZFo6TVQGh9W1LWrV3Di2DH4XLoo76GA8LoU5N0RtbsDAwKkwPCq+Lc+fOggmjZvDn0DfezcUTBulXKY7dq5A6HSjcCzQLMr6fmoti8tkRERYv+9wECsXLEcR+VSYuTkieM4fvQIoqOjsHTJ4iIBJGPPC9280oSQ4tKW0cSXdm3bPZbnryqpW7dukRyHzxIHhaxa6Ththrym0HzEKBiaVUwuw7zcXCnQqovaHh6iZXDrls2lfslePH8eCfEJaN5C/ZJfxXmYlwdPTy8xs7Jx4ybYvnULEhIS5KPFo4HO1OLVtWs3eQ9TcnVzR5++feUtBWol7NCxo5iNSTW9KUi0sLTEiFGjxYDx+vUbIElO5ktJcPfv3YM2bduK7WeBKjdQlQbvnj3FQjV+Cd0sUOt0YZTzbdiIkWjXvoO4SQiT69IyxqonDgpZtdKk/0CY1ywox9TpxYorGURd0H369YOjdAdLCwVmJY0VpK7GlNQUDB46tMImmtB1lK+Byk7VrlOnxG7LC+fOiaBw9JixJeYbq66Km+1HRe6ViXLpJ21Ti4aZdHNBQfmhgwdFkEVOnzyJ+g0awtjYWGw/CxQUhoQEi/Gk69euQXRUlNhPwSG1shRGlYVoHyUJDgkOFqUnGWPVFweFrFqhwK3dlCli3bNbd9hUYBN9ihQcLF+6RIzbotlzodKXLCXppi9cGq8lZhtLP3Oys+F72UcUTackpjT+LEvO1l9eyskjFBjQdammqb2Dw2OvgVqNqJRYQMBd9OrdWxynx7DSUdeWskwW/VSO06R/w40b1sPN3V10y1O3LXUdN2vWTEx6fyj99yxQt1pX6W+bxpN26txFtFiXJDkpSQSPVBrStIJazRljmomDQlbttB07AXrGxuj0YtGu5PIyMTVFGynI27Z1C3Zu3wbvnr1Et6Kvjw/27N4NR0cn8ZMy01MARoEjbdNy6WLBmLXyoBYpaqWibuMd0mvo5t1DVAC4cvly0ddw545o4dLT089/DSeOH5OvwkpCFXpocgahwI8Cf0o0SwEh/fs3lYJAQsX/KfDftHGj9O97AVd9fUVr3NNGrZfKMazUYly4asKjEhMSsHnTRlGK0r3W8xnDxBirPDhPIauWwm/dQM26xdfrZEzp3JkziImJFjPIafZ24yZNoKOrK4JuGjt48+YNDBoyFPfDQnHu7Nn8agy60jndexRUH7jiexmZGZlo066dvOfpuexzCQF3A9C5Sxfpdd9GTHSMmOVOLcORkRG4feuWKAlJLYoUyHp51YW1nNaDflK5t4rGeQoZ0wwcFLIqLzcvDwlJpXfP6mjXgLmpgbzFGERFA+ruV6LuVZqcQa28UZGRopXQwNBQtMZRHV0lGttZOH8atQzTeEOqufss3LxxQ1RrsLCwFNUaqA44zaCmYQJKFORSqpzsnILfj8YUUutiRfOLuIXzIT7yFtDOvRXq21WvcnKMaQIOClmVt2zbFazddQ1GhiVPpEhLz8I3b/REk7oO8p7SpWVk47vFp5CZlSvvKZ/cvIfo1MIFg7opZoyq4vC5e7gVFCtvlZ+lFBiP6dewSF5FxhhjVR8HhazK+3nFOQRFpcPVteQ8fP7+QZg8oCE6t1J9BubdkFjM/2IvGjeumPFY8YkpQE4WFn2sKBqviuHz1sHa1hzaWlpISEwV+2ylbQrqEuJTkJWdIwXE+jAxNRQTI2JiksQ5lhYm0NXTQUZ6JpKS06Grqw1LS1PcuX0fa74fCQuzqtlqGhOfhmMXguStiqGtrYXcXMXkk4pQr7YNGtZRPW9kVnZuhU5j0dPR4psCxp4g8Nw5WLu7w9zeXt5TdXBQyKq8px0UfvLHcbRoqXrLXkni45IRHxOL39/vL+8p3ZCX16BhQ3foSQFeYJAiUXETKUilWbF37z5ASmo6bKzN4exsg5ycXFz3UwREdWo7ikAxVgoSQ+9Hw9hIH3XqOOHY0av4/YP+cHV8+sXXn4elW32x/1QAuqjx71ySA6cDkJaeDXf3ikn+nUwBujaw5PMh8p6SXfJ/gA9+PizdFFRMEEet1d3a1sI70zrKe56Mvj4+WXgUcUkVM3M9T3ruWk4WeHOqIqUPq7z+GTcKaXIeVgMTE8xaV/Is96rku64d0PP1N9F8yHB5T4HIO7ex+6vPEe53DboGhqjfpy/6vfk/aKuQ8uvU8iU4v3IF0uLjYOXmhh7zXodXl67y0WeDg0JW5VX1oLDfzJVoJAWFNR2t5D1lR61dhw/7YsF8b7RqWJDPsSpZssUXelLUNX5gY3lP+SxccwEHzwSic+eKuV5SYirC70eq3Fq879RdbD5yF3Xrusp7yic6OhG56Sn49o3ia4UXliP9vQx6aTVatqyY8YE52bm4cjUQe/6eIO9hldWCFo2RLifG1zc1xcdX/MV6dfCkoDAzNRXfd++IRgMGoevMl5AUGYE1L7+E5iNHofdrb8pnFe/8+jXY99UXGP3zQtSsXx8XN67DkV9+xlsnzsDsGVab4pQ0jGk4CnCo67ciaWl41yGl19m6ebMUYCWKmb+FJ4GwikV/KlZWphWyWFqZwEBfR74yqwoubd6IG4cP4eyalVg6fQq2fPA/pMbHwf/gAayYPR1rX52LiNu35LOBjORkHPj5e3Huipdm4MKGdfIR4OBvP+HWsYLUWdQqt33Bx8hMUwybKezMquXi3NMrlmL5zGnY8OZriLh1Uz4KpEkB7aHffxHPs+qV2bi8fYt8RIEyVGz98D0seXESNr37Nu5fL6hz/iSJEeHw6tIdg97/GBY1HeHarAWaDh2K4IvnkZ2RgR2ffyquq3Tn1Ens/+l70eKek5mJvu9/hLpdu4og0HvOXGjpaCP0iq989rPBQSFjGs7EWB/GxhUz/o/Gxhka6KK2c8WnJXmWsrOyMWDgQBEcpqak5iebZow9W4GnT2HX558gIylJ5IYNlW7Slr04GbePHUGHqdORnZmBjW+9Lp8NrH5lFkJ8LqHzjNloMXwUDnz/tWhFIzXrNcTGN+eLgI5m8296500YmJhC3+jxikF3pIBw63tvIzUuFh1fnC4yAvw7fowIOqkk6dKpExF+wx/d57yC5kNHYO+Xn+Pkkn/FYyPv3sHfo0eILtxer70JWw8PsU1BaEnsPOpg1Pc/ScFcwY1NbHAwrN1qQdfAAMZWVuJ3peen17Hxjfmw96orxu92mDgFrUeOlh9FAWaECBSt5Rr5zwoHhaxKoCTBShVZmePDd9dh0R8HERf3/Fqa/vhtP779ajvCQuPkPdXH5YsXERhwt0gqFVXo6eshJTUVHTt1FrWKNX3SxNiRv2D50uNISXk+VWemT/4La1efRlqaev8OrOqhVr64sFApsCm40aIAjfYlyUndi5DeexZOTug2aw7qdOiIZkOHIy40BEM+/Rwebduhw+QXEXmzoAWvw9QZGPHND+JYw1690bDfQNw6clgco+16PXpJQeanOL1ymXjennNfFceKY+HshF7z34BHu/YY9vlXyJG+G+6cPIF7Fy+IgHC0FMC5tWiFBj17octLL+PMsiXicefXroJbq9boMn0WnBs3Ufxs3gwX5OBUVdT6eO/MaXR/ZZ7Y7j77ZREcnlj8N/Z88wVqte+ApgMGiWOFZWekY/0b80RtfgcpaHyWOChkGu9+WBg2b9yAXTt2iDuwU9KbvqKEBMfgr4UH0Nf7S3zywQbcua2YyPEsRUYkYs3KUxjc71u8Nnc5Ll0IlI8oxCWk5c86Li9qUcvIzEao9JyVQWpqCu4FBODU8WO44ecntlVBlUUoEKSKMlTVhRJLX/bxEX8fmujWjQf46btd4u/wh293IvyBYizXs3LD/z6++WIb+vb4Ej99vwsR4c/2+VnlsWLmi/i+SwdkJiuyGJAsGksn7Vs8eZy8pygrV3d5DSIoMnd0yq/3rmugL70vC27qqfToycX/iG7d/yaOxc0D+5FX6KZ/4EefIOjCORz++UeM+enXIq1yj6rZqGCcL030oOeNCwvBg+tXYenqCj3DgryhdnW8EB8SIj4jwqUbSYf6RYsb2HnWRbT0WaSqI3/+Llofpy5fDUvpeQn9zqN/+AUnFv0lWjKHfval2F9YQkQ4Fo0ZCRMbOwz/4mt577PDQSHTeFRftlt3bykQaIujR4/8v73zAIvqWPv4X6UjIE2KIsWC0qzYuyCCiB1jSyyJ6TH1u0nMTb+JMTftJiaxxGiMFSs2RKUoiIKoICAICkpVmvSyoN/M7AFEMKICLvD+fM6zZ2bO7tldl3P+885beJHZJ+KNV/6Eq9NXYktKyhR9Mlkl9u89B8/pP2DZkrUI9I8RfiBNxaqvvKvfw9kz8aKPny/ALxrPL1ojLEcH9oeL9yUflD88Kfwj8a2s6nUfgZvsYhbExFtjbjLpZsDFalpqCs4EB+Pi+XDkZP9zXkY+SchmvwteveNcWChMTE2RlZmJY+wG0xLgUbhV//98q6KoqAx/bzoFd5eV+Nc7WxF16YY00vhMnfxt9fkrKuRWoYL8Evz150l2/m/wf29vQWRE05ftIxSLAZ7PSHt1GbZoibT3eHAr5K/TJov9ie+8h+lfrRI16u/ljqwCleUyYSXkgR3/BK91fy9yIXpXXEvbtastf6pEKoe/dt3xdvKL40Pgz931f+8g8sB+vLTHG11s7aQRObKyMnGMrKwEFWW1Lf98efr36R6wHj8ec3/65R8Fb1NBopBo8fSxsUFy8g0Ydu4MCzbL1OxY17/kUcjMLEBGep7YeDTk/YSdvYo3X9uEae7/RcCJaKm3ccnNLap+D6WlNRUnquCWo48/3Ak3568hu5WDjh0bx6eQW9eUOrSH7mPkKOTpbspKSxt1q+8izMXehfBzOBtyWlQVqQ9+0e/eo4ewIk+c5AobW1s4u7ggN6elLMHfrf7/59v9cNHo6xOBhc+sxm/feCMvI1caaTzSU3Orz3//BIhHqR87GomlC39HVkQCMhLTpRGitTPAYzo09OpmOtDQ1cWAelK0PArJERGoKC3D5A8/hmkfW+iZdcPtlGRpVM7ef38I6wlOcPlgBXa89boI4HgQOUk1kxb+G85nE1fdLmYwsOyO28nJTFzWuENkXkuAvpWVEJL6bPxWgnwyXkXW1asw7t1baj2YQ19/IV7rxZ17qy2EVXCL586338CEt96B/ZSp8GLisYrCrExseHYexr35lljyflqQKCRaPCoqKsKSdOjgAWjr6KC0pBQb1q9D8KnGW0auj/zbxchj29OkqLBUzJx5gEhj0J7Nhnkks75O85RjexJk7IIuk9Xv48bFLbcSWlhaIoHNvrlPYnRUFNTV1aUjWg+FBSXCcvK0uMMmTmUlDy8jSbQOlFRVMXhe3ZRBjnPni6XhJ0HH2IhNxMsRFxggllF9v/8WRbm5IqqXWwUjDnojmU0I3T74CEPmzIO2sTEOr/yP9Oy63AgPQ9TRI8ICGfD7amGh436NvUaOQkdDAxxa+aUQY2kx0Qha+zsGzp4jnjd47jzE+/uL5xbfzsXFA/uRFBoq/CH/CR6hfPqP9bB398CVkwGIPHxQbDEnjovx4//7AaoaGhi24Dm4vvc+E5oJOLN1sxg7svIrIbbVtbSrn8e3W+yY5oREIdHiuZqQgJsZN9G7dx8cOXSQiRplzPKcg1x2IUhhs8FHhVvKuMgSQqueAAWr7p3x789mwsfvQ0yd6Sj1Ni5KSjXvob70MEbGOlj+jht7DyvQqUcXJnpqfG6eBD6b5lYoXiHjUeFvk4uxxtzqQ0tLC7b29hg+ajS6dDWTemszdfoMJCZew3HfozgbEoI/1q4R1mQX14bnf3y6tKv+/xe/w3roP9ACP/z8LN79whN6D8nB+TgoscnBw86/6ocFMBzYC+Y2NT5jROtn2MLn0J5dZ6vg+0MXLpJatTGxsallYeOWOnPHmuumhk6n6iVik942cPv3J/D97htsfXkZdExNMX/179DU1cWRb75CrN9xzFj1HVQ15atBM77+FrkpychNTRHt+3GYOg1J50Kxbq4n4plIW7huIzQ66Qphu3TLDpTm5WHd/Gfg/ckKjFz2kgiG4fBUMvPXrMfZvzdhjedMRB7wxqJNW2BiLfcztBo2AtpGJmL/Xngy755jxiKeidpwrx3V26VD3iIKOv3yZcxY+Z24tvHE1jNX/YCrp4NRXlIMVW0taHc2qvU8vt2bRqc5oOTVRIuH3/S7mZsLv7FjR4/CccgQdOrUCQnx8Shhf2wnIkofO3n1c/NWIzJC7rc1fGQvLHh2FIaN6CXanOZIXv3JCi947zsn9u0czMR7mOBsx4Sj3F+mNSevDmIX17IyuRXKwNCQ/T9bQLeepat/gucoTGaTA30DAxiy12iJyav72/5LPHKB5uTigGcXjYKNbVfR1xzJq0c4/ltEHnOh6DKpL+YvHIk+tl1E8mqPV7bCyWmAdOSTIZNV4ExIDPb+/GC/NUIx2PH2G4jYJ8/t5+AxDc/8+LPYVxR4bkLD7lZw/dcKqYdoCGQpJFo8xiYm7EYSgpjoaGRkpIvAAu5rxpMWGxg+mQXFpIseZs8Zir0H38XqNUtrCcLmwsBQCxPZjXjT1lewedtrcHHtWy0IOcKq1kglzhQNdQ0NdOnalX3vI9G3/4AGC0KvHdvFY25uLjb+uUFYDb3ZDYz/Jloi5paGeHbxaBzyfR8rv51bLQibCzNzAzz/4ngcZuf/cuUcIQiJtg3POVjFyKU1+0TLhkQh0eIxt7BAj549kZ6eBo+p06Cjo4MTx48JfzITJhifBH4D/vDj6ey1DKWe5uf1Nyfhm+/mwaFv/UlMdXXUoaPdOD6A3KdQVUUJZsaKUfd4oONg9LaxhYa0XNRQqvIaxl6OgZPzRLi6TcaixUuEX2FLZB+blLz17mThNvA02L5rOV59wwWGnbWlHqKt08XOXiwDdxs0SOTyUzR6OzvDfNAQqUU0FBKFRKuge/fumODkDM2OHaGhoSkikq17184z9STw3FXl0jJmSUlJs+e7K8jPR9DJk8jLyxPLqUmJidJI48KtjkIYNnLZvKeFhkaNWOafjbxlCKLx8PjsS0xe8YnUUiwGz34GNhOcpBbRUEgUEi2ezMxMbP17s7jh8/x0PKCgIL8AWzf/1Wg1b3lks8+Rw8JPMepSJAqauZZuePg5dO/ZE6cCA1FQUCCWyavILyxFYWGJ1HoyeJAJTy2Tm/90Kmc0Fjwafc1vvyI4KAiXIiNF3949e0QwUquEaV3++2+s7VHgh2dl5jXOlpWP0rLGCZoimh4eGGLWt5/UIloDFGhCtHhCz5wRQQQ8L93O7dvg+cxc0R9x8aLwvTt2ofixA02qOOpzBBNdJsHvxHFhqePl0/gydXMEmnDOM1GopaUt/OsO7N8nlsyHDhsuxnigiampPmxtzYU4jIiQVzwZMcJWPMbFJYubbRU6Opqws7MQ4u/sWXlkm42NOXR1OyI9PQdRUUkKE2jSGHCrLs89VsjEdEctLfx9MBLbDlyCXa/GidiNjJPnSjQ2apyl3QIm8vV01LD205ryV/w3d9B7v3j/zs4ThdgdNWaMGLsYm4EPvj+OxvIq5TcE5xHd8fZzw+QdDD4h4nkjJ7BzXzx/nv3+R1Yn+125PghZuY2TmukOux1ZddXDa/OaJqqfIIh/hkQh0eK5dvUqYqKjMMltMnwOH4LLJFchAvhNdOAgR+wKSEN8agHMzP7ZLzD28nUsnda3XlHI097o6elBW1sbJ5gwHDlqtFia5KLw9S+PCJHVGNy+XYj2dytqRZ5WUVxcLM5Zwh5LmUjgYoeL4WmvbWP9akwwqIvo4ZISuT9dVULrstJyyKSKFByeckdNXUVYhHiFDI66mjI6MAHNk3WnZ+Ri7WdTYGaiGH6FjQ23RMVclVeqaQx45hy+3F5a3nguBdyn01CvZuk7+cYNUdObR9Vzv8jKO5XCXaI54LndeKWg4SNG4rivL1RVVTHeyQnt76kAQRBE64BEIdEqCD8Xhgvh4SguKRHiid88BwwYiMFDh+JAQBx+3RoGDfWavFr1UVIiw/8+ckOPbnUjXPPz88VSNI90Dj17BteTkphI1MfAIcOxbndEoy158T/HoQ5d4TKyh9Qjh0dTZ99T2o1bjrgQ7s8+Yzs1fSRnNN5ydidtNTjaUXSpIlEhk8Hfz09UZeFJuSMjLopcnM1FgL+fqCfNJyTcReP5ZS/WKgtGEETrgEQh0argVg3+k76/5uWTsnnTRoyf4CSE2Y3r1+E4eDDS0lKRlJiE6TNnSkc1HeFhYTgZGID+AweiA/tsMiYSEq9dQy9rawwdOgzKKirSkYSicvjycURlxOH/xr0q9TwZJwMCMHrsWKnVtFRUVAhrJU8JxCdcnMrKSvG3YGllJdoEQbR8SBQSRAPYtuVvzJ2/QNyIbezsYGBgIPq3b92CZ+bNF/tNDV/CPh0chDFjx4ll40B/f7i5111mro8DX36GpNCzUguY/+sa6D2gGgjRNHhueA7p2ddx8PUD0FHTknobRlZWFvbu3iW15PAcjLq6uhg2fATs7BsncfaD4IFc3HXh9u3bwjrdt18/sZx96IA3Zs72lI4i2hp37t7BprAdWDxY7sdNtHzI/k8QDUBTsyNOBwXByNhYLFOnp6eLFDE6ktWkOeCBNLM95+DihfMIOnVS6m0Y2YnXkB51qXr7pyLyRONz9vp53MiIg0xWiu0X5FUgHgVunbO0tIK5uQWeXbQYL7z4EqysrMRjUwtCXmNaSUkJ02bMxHPs3NyHl09QCMI3NgBrjv+E+Cx5cBvR8iFRSBANwH3KFKiqqeJSZIRIB3MywF843Lu4TJKOaB7U1NXhMW26EAdm3RqnrBnR9GwK3SrtAbvDvCCrfDQfVC7KnCZOhHXv3sI6zZdtmwvurlBUVCRcFrgfobuHB0JOB4vlZKJts1n6XW8MlVcQaktwK+mPJ9fC5WcPjFw1BrPWL4R/QrA0+s9cy7mO57cvx6hvx2Hc9xPxzv6Pcbu0JkPE04REIUE0EJ7jjjv386hPLsq0dXSazdmeL9Xx1Dscnp6GO/6fYTfmllqhoy2RmHMD5+ODpBbPK5mJgzHHpNajwVMRzZ03X/y/p6elSb1NC/fP5VH8PocPi7aysjJmzfbEhfPhrNU6yysSD+dCahSuso0TcMkHOcW5Yr+tsP7MFhyJOIj/zvoGvm/6wMXOBR/tfv+h3wOfEL627S2Y6pjC+7V92Lx0E5Kzb+Cb4z9JRzxdOnzKkPYJgngAPPGxiooKiouKcPyYL4xNjEVVER5s0hyO9tyXkYtQ7tfFl47nL1gIO4e+OO57FNbW1uJGXR+lBQUozM1B1JGDyE1OlnoB20mToaymCtVHLB9HPDo/Bq7B1fTLUkvOjbx0eA6YLrUejQ5KSsKNgZdw1NHWafSgqvrg5+NWSg7PV8gTxvfvPwAO/ShxcVvlmxM/ISUrUezfvVuJu8rqGGI+QLTv51ZhFj7zWYVRVkOh1EFJ9O2LOoLzKZGwN7ERFrbjV04isyALq/x+wn421r69EnoZdhfH1kfsrQSsOvE/bA7djgtp0bAxtkZHVfn1LC7zKn4I/B2bmHDzSzgFTdZvoSf3of41eCMq7lTgQLQvfjm5Rpy3a6cuMOpogI99VsKQPRpp1aQv+5O9/rXsJNgY1a57z8/h1Gc8hls4QrmDMvp3scMfpzZggKUjEtj3sjPCGyMtB4tj+fm+8P0OGuw70lBRQ3phNt4d96rwLdZmW2mlDIFxgZg7aJY4/mlClkKCaABlZaWidF5i4jVMdp8Cx8FDxDLuzYwM6YimhafZMTc3F0t43bqZQ1VNTQhEE1NTFLGxB+Gz6musGj4Y106flnrkbJjviVWjhpFvYROTW5KHE5GHpFYNyTev4EwSt7Q1DC7C+JIt53JMDP7+axMiLkZg/bq1osJNU8MTpnN4wMv6tWsQevYs/tzwh0jNRLQ9Utik5mysv9SSsz98N8oq5DlS76egrBAno3xQfo/bxKW0ywhPjhD7STk3sP3MVpxKPIPXR78Ilz5O+M/+TxF6/bwYv5+0/Jt4cfOLsDO1wXtOy3GX/Xthy6tCfKXmZeClza/AUq8bPndfATebifhoz4c4nRgmnhuWFIaVR7+FvkYn/Mv5Leioa+P9vStEGcz80gJ4XfQWx3H459l4ah07tm6asnkDZmCidU30f2IOn3TfhaW+OYaaD8QpJvJ2Rx4UYxvObkN0ajQGmDnAQFMfH7u8Wy1gOVeZiDQ3tJRaTxcShQTRQLgPFRdkqakpos39upSVmycVTP8BA7Bn9y4ksZtwSkoyzp87J1LUcFGqr68vHVWXYc8ukvbq4uDuAWUmLpsbLiwOHTggteRwoeO1YzsOHzwo/Nc4/PvmOfF2e3nVqfXM22H3RFMrKtvO70VFhTxB+P1sCqvxM3wYPCUMnxhw+LLtkqXPY5anp0iTxP1cmxqep5MTefEiJk/xwMzZs0XAS0v4PyAan7/CduDu3ZqE+Jyi4lxh4XtcZBWl+MTlPdib9MHsvlNgb+UIn7jawrOKPUxsWRpZ49lBnuL4D53ehDt7TmF5Mbyjj8JEzwzPD10AC10zuPaZgBFs2xUhiT0m/my72mNO/2nC+reAvUYuE7lcuE6xdUUQE7s8OTwnICEYykpqGGU1RLQfBPcH/GD/x5g1bCFMtY2goaKOLzw+wa9+q3E+5RK2hfyNr6d+BqX2civpvfjGBSAw5gTeHPuS1PN0IVFIEA3And0IeYJs36M+8PXxwU/ffyduiC6urtIRTQsvbzdz1mwmDmQiHU12TraISOVpcvgM90EY9eyF7iNGSK3ajGDCorlJSU5G8KlTSIi/IvJJcjJv3cK5sFAR3cqtsYcPHhDJuQ9474fTRBdMdHERlqpKJow4JSUl8Pc7IaJgFZ18drMwN+4NDXUdNoFQr966GVujtPzxrLSqqmrVeSnV1dVRIWu+WsHKKsoiwIqjxh55rkKibcHF09GLtSd1VWx9goATY71uUOlQ4wbTtVNXpOeliaXnr4//VL1lsva1rCR00esqHcn+DpTVsIwJsk5q2rhy8wosO9d26bFgr52SUxMYZcbEYhVqyvLfcwUTgmO689KOdxFyXW7FP3z5GJztJ6FD+we7aFzNTsKzG59H/24D8PaYGmHHl5PdmfB87e+XsWjUEnTXr1spa/2Zv7HK51v8+MwPsNKrO/40IFFIEA1AS1tbiJaXXnkV//pwBZa//Y7Iz6al9Wj55p4E7lPIq0rwMn7OTCw59O0nolIfxogly6S9GiyGDIFpH3lt5Oakc+fOmDp9OpTu8YFMSIiHra0dE0vKwj+Ti0Rl9rmWvrBMlBXk3z0/ntfF5XBRznPztQTen/AGdizZiE4dDSCTlVRvfy1cgz/nr5aOeji8pFxUZCTWr/kdaakpiL18GaVMHB9iArqX5OvXlGRnZWHt778hJjoakZJlcvcuL/SybvpzE4rF0Vh/lJXLrfn3k5GVKAJQHof29Uxu27VrL0KZlJhYrNqqJsEPSrHMx+sfe3hQlHIHJYyxccKRy8dRWFaE8PhgTLevXYf+XrgVcNnmlzF3yFx84LS8zgQ9PS8dqiqaSL6dKvXI4e/vU59VOHTpMP58bh36mtpII08fEoUE0cqx5smuLWv7q4xY/IK017yoSFame+HLouoaNXV+uRVMVlFRbZEK8PODvb2DEI1cDGlqagpfyraEkZGRmIgsfv4FLGFiuWfPnuJ78nxmLoyNjaWjmo433nobLyx7USwZjx4j96Ma7+Qs3BqItsVUO1f89cIWTOxfO1Bq6bhXseXF7fUKnPZM3HHKK2tcKVLvE0o3c1NFmpcq0vLSYKpjIgI/3hv3SvXGffKsDCyQeKtmpaC8UoYvfL9Hev5NWOpb1hrjXGNitadx7UCRB+HBPl9IXKBY1jU1sHxgsMsN9v7f9XoP77t9gLn3fRccn8t+iGai8e+lm+AffRxBiaHSCPBz0B+ISYvGpoVrYdZJsa5lJAoJopXDZ6/DFi2VWoCumRls2A1dUeDWTu4zVwVfJua58fjS5P69e6GmpoaRo0cL8ciDLXg1jbzbt0XQDa9H3Zbg3wsXxVxc8309vboO8E0FT7/El6v5xjE0rInQJNoO3JrGhZKuhq7UI8dY2wjd9S2qBeC9dGHijlvM/gzdIRJdbwzbjhtS5HIN7bDK7xdcz00RgiryWihceztJY7WZZu+G1OwkrAn5C1Hpsfj6+I8ISQiCvqYepju4IS37OjvXNiHcePqnECbwZtg3rPoTX/bVVNPGH0Eb4M5e60HwFDKdO5kgt/g2dl70rt545DFf4l7lswofT17BPrsx3p74Fj4/8IXwPeTvaRt77SFWQ+ET61f9PK+I+pfkmxsShQTRBhg0azbUtLXF/rDFS5stv2JDMDExRVqq3GrAhR9fKuZC8aC3N3r26oWhw4eLsfLycpEf8lJkJKKjo5CXl4cblECZIBQe7iv45YyvhL/fF0dWieXTtyYsh/09VkVTfTZZNbbGZ0dWYsf53Vjh8QkGmjlIo7XpykTmbwt+Q2xGHL72/U5ECa+b/6s4jxhb+BuimVj8YP+n8LsSiO/n/FD9WoMtHNHToMbnUIuJ1RG2E6HaoSZocOmoJejDxOEUWxeppy7d9MzQhW1nr5+rtXFrZeDVEMwdtqA6Rc9kG2e49nXHqatnUCIrxXAbJ6TxCO57n5t0Thz7tGnH/nOo9jFBtAEOff0Fzm3bivdDzj21/IQRFy+ISGMePWxhaQmr7t3h6DgYu7x2ijyQvLbuqNFjhC/hhvXr0M28xvnaxdVN1PrlcEHoc/gQ5sydJ9qKzoeH/oMUkbJCzvp5P9dyqieIlsYPgWuxI3iD1AJWTP2ciaiJUuvR4Fa9YzEnsHXReqmHeFqQKCSINkJB5i1cP38eds1cmu9e7ty5g7tsq4JbLHkQBYcvBXM/Qm4p5JelO/dFtvIkzfc6cvPx5kjcTBBEXUgUtk5IFBIEQRAE8UhEpsUgKiNWagEjLAfDXLcmTcyjwKN44zOvityBxNOFRCFBtGDOXkrBpz8HSK3G4eW5jvAYZy21GkZWbjFWrg+Col5MKivvwNPFFsP71+Qnawj+ZxORk1citRSPnuZ6cLA2lloEQRBPBolCgmjBePvH4fDpJPTs+Xgz9PtJTLoJB0sdLJs9UOoBIi4k4cfvDmPhotEYO96mern3Xs5EpGDVhtPo3fvRRFdzkZaWDTsrPby7WB60wnn5hfUYMMgSnnOGQadTTUqcKopKZJi1fAcsLIykHsWiuLgU5aVl2Pbfp18vlSCI1gGJQoJQcOKvXEFkRASGDB0q0rPwYIwePXuKsSpR2KtX44ixxKQM2FvUFoWnAi/jjVc2in0zc33MWzASU6cPgrp6TbQeF4Xr9kTA1k4x6nfeT3JyJrrqKeOdRTWicPzIz5GbW8S+U2VMmToQ858dBXMLA2kUKCwux4L/243RY/pKPYpFYWEJrsUnY+NXtORGEETjQClpCELB4TWAZ8yahZiYaGRnZ6Os7PHKoz0Kp4Pi4Ob8tdg++chL6mXv5Xo2vvnPfkya8BV+/tEHmbfkNXFbCq+/vKH6cxUXyxPplpbK4LXjDKa7/xfLX92I8LBrop8gCKKtQaKQIBQcYxMTJMTHY9z4CbhwntfkfHi5pielpESG9LTbYsvNqVvSKj+vBBvW+cNt4kr8+4MdyMkqkEYUGy5iqz7X/YskvH0y4DKeX7QG82b/D6f8Y6QRgiCItgGJQoJQcGxsbUUOP24x5Hn5bO3sRD/P9/e04fJUSbkD2rdveqHanHRQas82SndDEETbgkQhQSg4Z0NCEBx0CjHR0fDasV2UgeOcD2+6DPhc5FVt99V4F2hqquK5JWNwyPd9fPL5LHTS6yiNKDa8NFzV56rP4jpilDXWb3wRm7e9huFsnyAIoi1BopAgFJzExGvCQuju4YF+/Qfg0MGmr5E5boItwi+tFNtPqxdJvYC+QUe8/pYrjpz4EG++4wbDzvLSeS2FLTtfr/5cXNhyOnRoDzf3/ti59y388vsSDHSsKYFFEETrIbuwEJ97H8Bfp0Oknoaz7+IFLN+6DQWlTe/T/TSh6GOCUHC89+1jYrB/dcm3M6dPo6CgABkZ6dDpNgwHgxIbLSVNUlIG+nbXrZOS5otP92DughEiSldFRUkaqYFHH3/zRzCsrRU3JY1DD/1aKWkWL/gVvft0Eal2TLvULu7PKS6VYeYbO2BsrCP1KBbFReVQUW6HzStnSD0EQTyIk/Hx+MnnKNRUVGDVuTO+mN6wqP38khJ8ut+bPRYjITUNu99cDv2OLWNl5HEgUUgQCk7e7dvYt3cP5i9YKErAccLPheFUYCBGTpqHf//kByWlxjH6V1TcwWsLhmDyaHnKm4aSfbsE328KwR0FvZzcqbyLGc69McTh0cRzwo0c3C5QXMtAVyNtGBu03hsUoVgcjYnGxsBTmDl4EKY49IWqdD1qCH6xsTgdnyBcN5xtbeFoYSGNAKdY/8m4OFRUVsKmiymm9usHFSUlpLFr37GYGLja2WPb2bPIKSqCQzczzBwwAOE3buDqrZvwHOQovQpwu7gYW9lxC4cNg5aamtQrZ01AICbZ22Fn2Dkh9KpEoYydc2NwMJxsbGBpIE9JFZ2WhrDERDw7fDgupaYijk3AR/boiXm/rCZRSBCEYiErL0dpWRm0tLSknuahsLBQnFtXT0+kxtHV1WUX+JbvgVLBfTTZZZAL7iJ209HU1JRGCKLtwSVBxT31ye+FL6GuPnJU7Guqq2PygP6Y4+j4UJG06fRpHL5wEYvGjEIxu4asP+GP96d6YEyvXtgcEoJ9TKi96DQemipq2MwEmpa6Gr719ERkSgre27oN/SwtMcG2D0rKZVh91BfvuLuhm54BXtmwQYg0Pelvdlf4OewKPYftL78k2vXxrc/RWqKQ88epICZYr2Dd4sVCmC5csxaew4YK8VkFF6htQRR2+JQh7RMEoYCksZnq5r82ITwsDJ2YENuzywtRUZeQlZlVncS6OTiwfz+yc7KZMJQhKfEaTLt0EYEbLZm77Oa322snEhLioaevL4J3rKy6S6ME0fY4k5iI5377HZuDgupsYQlXpaPY5JRNpqKTk7E7NAxJubnowq5N+vVMqPjqwYqdXnh7shuc+vSBjYkp9HW0UCqrQI/OnfGR1y687jIRzjY2TOjpCUvgaibcJtjbs2NkOBh+Hp/NnAFHC0v0NjbGpfQ0Jixl8OjXF74xMVBTVYGNqak410++xzDOpg/6desm2vVxmn2GMvbex/fpLfUAfc264lBEJIqYYA1m45W4izednaVROdyXkH/WOUOHQkOlJnF/a4MCTQhCwQlhs2weaLJoyVIcOXQQs5+Zi2UvvYzMzFuoYBfN5kKNzd7Hj5+AjPR0sbUGuFXAwMAQ06bPwLmwUBQV1s3JSBDEg6lkEyv/yEt4Ye06vL5lK9Lz8qQRORmsXcwEVQ9DQ6kHYjnY3cFBWN8Ki4vRx8REGoEQhspKSriWmSn1QIjHKtSVVcTfLWeivR1ORMtTc2Xk5yOeTaDd7B1E+1Ho0L49Pp42FdtPh+DYpUiscHeXRtoeJAoJQsGpqJBBR1ubiTJ1mFtYQI9dNDmqqqrigtxc9OvXH+VMhI4eOxZmZt1avJWQo6ysDH0DA2H14IJXid2MCIJ4dNTZ9ainUWdo3mdFq1qKbldPbqsqH+T2941xt5Qqz7Z6MmJVM8neHnHJySKq2DcqGnbs+thZ+/HcapTZ9Yy/H37e+t5rW4FEIUEoOLZsVr3l7824w2bHHtOmiz4egSxjAo0Lw+Zk5/Zt+PWXn8Uy62/scd+e3ShmM/2WjI6ODg4d8MaVK3FiOX79mt+xY9tW4UNJEG0NvjRqoq9f76Zdz/KwAfv7WebshN3L38AbTk7QZpPXezFmE1puiUvOyZF6gPM3bsA/NhZGWlp1xngwSVl5OSzY+R4Gf+3e3brBPy4WfjHRcOv36FZCDheCX+z3xnRHR4zq0wdfHTwkjbQ9yKeQIBSczkZGMDExgRa7AFbBBeHQYcOb1VrHfRmnz5yF0WPGYPCQoRg8dCiUlJQRevYMrHvX+Oe0JCqZ0D7ovR/DR4xE4rVrSE1NEZ9RW1sHFy+cb1afTYJQBLjQmuU4qN5NRVUFofEJ4rgeXbrglYnOeM/VFX3NzISlrT646Etkou9kbBwGWlggs6BACDADbS0MYm3ujxh0JR7De/QAtw3+fMIPd9sBi0aOxM38fPhcjMCi0aPlL8YIYK+jrNQBI6W/zYq7d7AvPBy3bufhg8mTofSA9xGWlIQUdi4eVcwDTfj5+ZKzaadO2BYaisupafh4qgcGmptjQ+BJNuFWET6MN9h7j83IQFJ2FoLZuXuxz53JJoyqSkrQbOZJeXNAopAgWgAd74t245G/zSkIuZWSW9IG3pP+gcPfxwUmnuwew49HESguKkJeXh76DxwIDQ0NEYlsxW5OfIk+6lIkevexkY4kCCK7sAjld+/ivclueGHMaFgZGtZZ+q2PwVZWuJqZhfUBgfC/fBnjbGyweOQI8dxhbCwhMxNr/fyx59w5mOrp4kMm7rjFsrCsDHG3bsG9X1/plcBeJ1NEGzt0laeX6squQf6XYzHe1hZD2Gs9iC+9DyCcCcMyNqHmy8QXrl9HVGoqE5c9sDEoGO+6uaKzlpYQt5ZGnbH//AWM7tULgey6xyOaY9PSoc8EczR7Dn+uCTtvQ6yZLQ1KSUMQRIPY7eWFTmxW3ZVbBZSVxbJxTHQUujMRdb9YbCnw6OO/Nm1E/wEDcCUuDndYe9jwEUhPSxPpacZNmCAdSRAE0fohUUgQRIPg1sLLbJbPU+TIKmTQUNcQy6tcJLZksrOycOlSJCwtraCqpoaQ4CB01NLC2LHjoNyKU08QBEHcDwWaEATRILjzt0xWDls7O4wbPwGVdyqFHx5PaN2SUVFVhVZHLbEcb2xsLPebHD0G8fHx0hEEQRBtAxKFBEE0CK8d25GTnYPAAH8RnKGvbyCWW/38TkhHtDz4QgmPNOZL4SGngxESHCz6uQC+mkCikCCItgWJQoIgHgqP0uXpb8Y7OcF9igfKmWjq178/xowbx4RitnRUy6OosBBGRkYYNWYMZs95Brm5uYiOipJGCYIg2hYkCgmCeCh8aZVb03i0Lq8NzFO4cG7evAmVFux3p66ujlu3biE/P1+0XVxdRdRx7GV5lQSCIIi2BIlCgiAaxOgxY3EyMBDtecoGKyuUl5WJ5NWjWH9LpYOSEsaMHYcL58PlbfbZZs72RHZ2NhO/rbfoPUEQRH1Q9DFBEARBEARBlkKCIAiCIAiCRCFBEARBEATBIFFIEARBEARBkCgkCIIgCIIgSBQSBEEQBEEQDBKFBEEQBEEQBIlCgiAIgiAIgkQhQRAEQRAEwSBRSBAEQRAE0eYB/h94eG24wDg83AAAAABJRU5ErkJggg==;" vertex="1" parent="1">
          <mxGeometry x="450" y="300" width="645" height="437" as="geometry" />
        </mxCell>
      </root>
    </mxGraphModel>
  </diagram>
</mxfile>
